<svg xmlns="http://www.w3.org/2000/svg" xmlns:xlink="http://www.w3.org/1999/xlink" width="500" zoomAndPan="magnify" viewBox="0 0 375 374.999991" height="500" preserveAspectRatio="xMidYMid meet" version="1.0"><defs><clipPath id="caaea75295"><path d="M 187 80 L 252.550781 80 L 252.550781 140 L 187 140 Z M 187 80 " clip-rule="nonzero"/></clipPath><clipPath id="90072bfc09"><path d="M 122.800781 37.5 L 232 37.5 L 232 132 L 122.800781 132 Z M 122.800781 37.5 " clip-rule="nonzero"/></clipPath></defs><path fill="#2dc100" d="M 228.175781 217.652344 C 228.175781 195.246094 209.941406 177.019531 187.535156 177.019531 C 165.128906 177.019531 146.894531 195.253906 146.894531 217.652344 C 146.894531 240.054688 165.128906 258.292969 187.535156 258.292969 C 209.941406 258.292969 228.175781 240.058594 228.175781 217.652344 Z M 228.175781 217.652344 " fill-opacity="1" fill-rule="nonzero"/><path fill="#2dc100" d="M 72.1875 228.085938 C 94.058594 227.464844 111.667969 209.523438 111.667969 187.5 C 111.667969 165.085938 93.433594 146.859375 71.027344 146.859375 C 48.621094 146.859375 30.386719 165.09375 30.386719 187.5 C 30.386719 209.519531 48 227.464844 69.863281 228.085938 Z M 72.1875 228.085938 " fill-opacity="1" fill-rule="nonzero"/><path fill="#2dc100" d="M 305.167969 228.085938 C 305.167969 228.085938 305.175781 228.085938 305.183594 228.085938 C 327.058594 227.472656 344.679688 209.523438 344.679688 187.5 C 344.679688 165.085938 326.445312 146.859375 304.039062 146.859375 C 281.632812 146.859375 263.398438 165.09375 263.398438 187.5 C 263.398438 209.542969 281.054688 227.511719 302.960938 228.085938 C 302.992188 228.085938 303.027344 228.085938 303.058594 228.085938 Z M 305.167969 228.085938 " fill-opacity="1" fill-rule="nonzero"/><path fill="#2dc100" d="M 187.5 0 C 84.113281 0 0 84.113281 0 187.5 C 0 209.542969 3.757812 230.980469 11.148438 251.371094 C 20.121094 243.175781 30.601562 236.90625 41.945312 232.976562 C 26.964844 223.359375 16.988281 206.589844 16.988281 187.507812 C 16.988281 157.714844 41.230469 133.472656 71.023438 133.472656 C 100.816406 133.472656 125.054688 157.714844 125.054688 187.507812 C 125.054688 206.625 115.042969 223.417969 100.019531 233.027344 C 112.585938 237.375 124.160156 244.464844 133.875 254.128906 C 138.246094 258.507812 142.019531 263.542969 145.464844 268.875 C 149.664062 266.613281 154.039062 264.730469 158.539062 263.183594 C 143.503906 253.574219 133.492188 236.777344 133.492188 217.660156 C 133.492188 187.867188 157.734375 163.632812 187.527344 163.632812 C 217.320312 163.632812 241.558594 187.867188 241.558594 217.660156 C 241.558594 236.792969 231.535156 253.59375 216.488281 263.203125 C 220.921875 264.730469 225.242188 266.570312 229.394531 268.792969 C 240.289062 251.925781 256.425781 239.429688 274.976562 232.996094 C 259.980469 223.378906 249.996094 206.605469 249.996094 187.511719 C 249.996094 157.722656 274.238281 133.480469 304.03125 133.480469 C 333.824219 133.480469 358.066406 157.722656 358.066406 187.511719 C 358.066406 206.636719 348.054688 223.433594 333.019531 233.042969 C 344.332031 236.953125 354.777344 243.160156 363.835938 251.402344 C 371.238281 231.007812 374.992188 209.566406 374.992188 187.511719 C 374.992188 84.128906 290.878906 0.0117188 187.492188 0.0117188 Z M 187.5 0 " fill-opacity="1" fill-rule="nonzero"/><path fill="#2dc100" d="M 134.261719 276.140625 C 131.324219 271.601562 128.117188 267.308594 124.417969 263.613281 C 110.355469 249.621094 91.78125 241.761719 72.132812 241.488281 C 71.765625 241.492188 71.402344 241.539062 71.027344 241.539062 C 70.648438 241.539062 70.273438 241.492188 69.890625 241.480469 C 49.78125 241.726562 30.636719 250.21875 16.660156 264.761719 C 27.355469 288.402344 43.058594 309.882812 62.382812 327.066406 C 73.445312 337.058594 85.632812 345.527344 98.664062 352.511719 L 98.664062 347.214844 C 98.664062 341.660156 99.160156 336.152344 100.136719 330.851562 C 104.222656 308.964844 116.558594 289.414062 134.257812 276.132812 Z M 134.261719 276.140625 " fill-opacity="1" fill-rule="nonzero"/><path fill="#2dc100" d="M 261.683594 333.269531 C 258.972656 318.339844 251.800781 304.675781 240.945312 293.757812 C 236.851562 289.742188 232.546875 286.300781 228.199219 283.574219 C 203.878906 268.011719 170.980469 268.085938 146.953125 283.527344 C 129.382812 294.714844 117.132812 312.851562 113.316406 333.300781 C 112.488281 337.789062 112.066406 342.476562 112.066406 347.222656 L 112.066406 359.0625 C 113.027344 359.492188 113.992188 359.917969 114.964844 360.335938 C 116.390625 360.9375 117.816406 361.539062 119.257812 362.109375 C 120.949219 362.777344 122.652344 363.402344 124.359375 364.019531 C 125.765625 364.527344 127.164062 365.035156 128.585938 365.503906 C 130.347656 366.09375 132.121094 366.628906 133.894531 367.160156 C 135.289062 367.574219 136.675781 368.003906 138.066406 368.390625 C 139.894531 368.894531 141.730469 369.335938 143.570312 369.777344 C 144.949219 370.113281 146.324219 370.460938 147.710938 370.761719 C 149.605469 371.167969 151.511719 371.519531 153.421875 371.867188 C 154.773438 372.113281 156.121094 372.386719 157.488281 372.609375 C 159.480469 372.929688 161.496094 373.179688 163.507812 373.433594 C 164.800781 373.601562 166.089844 373.792969 167.390625 373.933594 C 169.628906 374.167969 171.878906 374.324219 174.132812 374.484375 C 175.21875 374.558594 176.296875 374.679688 177.386719 374.730469 C 180.742188 374.90625 184.117188 375.007812 187.507812 375.007812 C 190.894531 375.007812 194.277344 374.914062 197.632812 374.738281 C 198.769531 374.679688 199.902344 374.558594 201.035156 374.476562 C 203.238281 374.324219 205.441406 374.175781 207.628906 373.941406 C 209.007812 373.792969 210.375 373.585938 211.746094 373.414062 C 213.675781 373.164062 215.605469 372.929688 217.511719 372.628906 C 218.988281 372.394531 220.441406 372.101562 221.898438 371.824219 C 223.6875 371.496094 225.480469 371.175781 227.257812 370.789062 C 228.777344 370.460938 230.277344 370.078125 231.785156 369.710938 C 233.484375 369.292969 235.183594 368.894531 236.871094 368.429688 C 238.414062 368.007812 239.941406 367.539062 241.464844 367.078125 C 243.09375 366.589844 244.722656 366.101562 246.339844 365.558594 C 247.886719 365.042969 249.414062 364.488281 250.949219 363.929688 C 252.527344 363.355469 254.109375 362.777344 255.675781 362.164062 C 257.203125 361.558594 258.722656 360.925781 260.242188 360.28125 C 261.167969 359.886719 262.085938 359.476562 263.007812 359.070312 L 263.007812 347.222656 C 263.007812 342.796875 262.640625 338.425781 261.917969 334.199219 C 261.816406 333.902344 261.738281 333.589844 261.675781 333.269531 Z M 261.683594 333.269531 " fill-opacity="1" fill-rule="nonzero"/><path fill="#2dc100" d="M 305.128906 241.480469 C 304.761719 241.488281 304.40625 241.535156 304.039062 241.535156 C 303.695312 241.535156 303.367188 241.488281 303.027344 241.480469 C 277.746094 241.761719 254.472656 254.945312 240.785156 276.105469 C 244.039062 278.542969 247.265625 281.191406 250.386719 284.25 C 262.976562 296.925781 271.339844 312.664062 274.675781 329.878906 C 274.789062 330.1875 274.867188 330.515625 274.933594 330.851562 C 275.914062 336.152344 276.410156 341.660156 276.410156 347.214844 L 276.410156 352.480469 C 289.472656 345.433594 301.632812 336.976562 312.582031 327.09375 C 331.976562 309.851562 347.691406 288.335938 358.394531 264.664062 C 358.058594 264.316406 357.75 263.933594 357.414062 263.597656 C 343.351562 249.617188 324.789062 241.753906 305.144531 241.480469 Z M 305.128906 241.480469 " fill-opacity="1" fill-rule="nonzero"/><g clip-path="url(#caaea75295)"><path fill="#ffffff" d="M 252.191406 102.316406 C 252.191406 93.3125 246.007812 85.339844 236.519531 80.472656 C 236.058594 80.238281 235.503906 80.523438 235.425781 81.035156 C 235.207031 82.484375 234.894531 83.921875 234.488281 85.339844 C 233.644531 88.308594 232.386719 91.21875 230.753906 93.988281 C 229.183594 96.652344 227.246094 99.21875 225 101.601562 C 222.8125 103.925781 220.316406 106.097656 217.574219 108.066406 C 214.867188 110.007812 211.898438 111.765625 208.75 113.292969 C 205.601562 114.820312 202.242188 116.128906 198.765625 117.183594 C 195.332031 118.226562 191.796875 119.019531 188.191406 119.570312 C 187.523438 119.671875 187.308594 120.527344 187.847656 120.925781 C 194.652344 126 204.207031 129.15625 214.792969 129.15625 C 215.480469 129.15625 216.160156 129.140625 216.835938 129.117188 C 226.164062 140.578125 234.597656 140.070312 237.480469 139.457031 C 237.964844 139.355469 238.214844 138.824219 237.996094 138.378906 C 236.832031 136.023438 235.640625 129.628906 234.882812 124.957031 C 245.289062 120.191406 252.191406 111.835938 252.191406 102.316406 Z M 252.191406 102.316406 " fill-opacity="1" fill-rule="nonzero"/></g><g clip-path="url(#90072bfc09)"><path fill="#ffffff" d="M 215.082031 105.105469 C 217.546875 103.335938 219.789062 101.386719 221.746094 99.304688 C 223.734375 97.195312 225.441406 94.933594 226.824219 92.585938 C 228.246094 90.175781 229.335938 87.652344 230.070312 85.078125 C 230.824219 82.433594 231.207031 79.703125 231.207031 76.976562 C 231.207031 74.25 230.824219 71.519531 230.070312 68.871094 C 229.335938 66.304688 228.242188 63.777344 226.824219 61.367188 C 225.441406 59.019531 223.730469 56.757812 221.746094 54.648438 C 219.789062 52.570312 217.546875 50.621094 215.082031 48.847656 C 210.105469 45.277344 204.328125 42.476562 197.902344 40.53125 C 191.28125 38.519531 184.25 37.5 177.007812 37.5 C 169.761719 37.5 162.730469 38.519531 156.109375 40.53125 C 149.683594 42.480469 143.902344 45.277344 138.933594 48.847656 C 136.464844 50.617188 134.222656 52.566406 132.269531 54.648438 C 130.277344 56.757812 128.570312 59.019531 127.1875 61.367188 C 125.765625 63.777344 124.675781 66.300781 123.945312 68.871094 C 123.191406 71.519531 122.808594 74.25 122.808594 76.976562 C 122.808594 80.472656 123.433594 83.941406 124.664062 87.28125 C 125.851562 90.5 127.601562 93.609375 129.867188 96.507812 C 133.992188 101.789062 139.796875 106.339844 146.71875 109.738281 C 146.050781 113.71875 145.394531 117.128906 144.761719 119.894531 C 143.472656 125.519531 142.671875 126.671875 142.542969 126.828125 C 142.019531 127.292969 141.769531 127.992188 141.878906 128.683594 C 141.992188 129.390625 142.464844 129.984375 143.128906 130.253906 C 143.242188 130.300781 144.296875 130.710938 146.070312 130.972656 C 147.039062 131.113281 148.035156 131.1875 149.050781 131.1875 C 150.460938 131.1875 151.902344 131.050781 153.375 130.777344 C 156.851562 130.128906 160.335938 128.730469 163.730469 126.613281 C 167.660156 124.164062 171.480469 120.742188 175.101562 116.429688 C 175.742188 116.445312 176.378906 116.453125 177.015625 116.453125 C 184.257812 116.453125 191.289062 115.433594 197.910156 113.421875 C 204.328125 111.476562 210.109375 108.675781 215.082031 105.105469 Z M 174.238281 112.308594 C 173.59375 112.28125 172.980469 112.5625 172.570312 113.0625 C 166.394531 120.648438 159.59375 125.363281 152.902344 126.699219 C 150.371094 127.207031 148.308594 127.132812 146.996094 126.972656 C 147.074219 126.773438 147.152344 126.5625 147.230469 126.339844 C 147.691406 125.019531 148.171875 123.277344 148.664062 121.15625 C 149.421875 117.90625 150.207031 113.773438 151.003906 108.878906 C 151.148438 107.96875 150.671875 107.078125 149.835938 106.695312 C 135.46875 100.113281 126.894531 89.003906 126.894531 76.980469 C 126.894531 67.660156 132.019531 58.847656 141.320312 52.175781 C 150.824219 45.355469 163.5 41.597656 177.007812 41.597656 C 190.511719 41.597656 203.1875 45.355469 212.695312 52.175781 C 221.996094 58.851562 227.117188 67.660156 227.117188 76.980469 C 227.117188 86.300781 221.996094 95.113281 212.695312 101.785156 C 203.1875 108.605469 190.511719 112.359375 177.007812 112.359375 C 176.089844 112.359375 175.15625 112.34375 174.238281 112.308594 Z M 174.238281 112.308594 " fill-opacity="1" fill-rule="nonzero"/></g><path fill="#ffffff" d="M 163.964844 78.625 C 163.964844 79.148438 163.914062 79.664062 163.8125 80.175781 C 163.710938 80.6875 163.5625 81.1875 163.359375 81.667969 C 163.160156 82.152344 162.914062 82.609375 162.625 83.042969 C 162.335938 83.480469 162.003906 83.878906 161.636719 84.25 C 161.265625 84.621094 160.863281 84.949219 160.429688 85.238281 C 159.996094 85.53125 159.539062 85.773438 159.054688 85.976562 C 158.574219 86.175781 158.074219 86.324219 157.5625 86.425781 C 157.050781 86.53125 156.53125 86.582031 156.011719 86.582031 C 155.488281 86.582031 154.972656 86.53125 154.457031 86.425781 C 153.945312 86.324219 153.449219 86.175781 152.964844 85.976562 C 152.484375 85.773438 152.023438 85.53125 151.589844 85.238281 C 151.15625 84.949219 150.753906 84.621094 150.386719 84.25 C 150.015625 83.878906 149.6875 83.480469 149.394531 83.042969 C 149.105469 82.609375 148.859375 82.152344 148.660156 81.667969 C 148.460938 81.1875 148.308594 80.6875 148.207031 80.175781 C 148.105469 79.664062 148.054688 79.148438 148.054688 78.625 C 148.054688 78.101562 148.105469 77.585938 148.207031 77.074219 C 148.308594 76.558594 148.460938 76.0625 148.660156 75.578125 C 148.859375 75.097656 149.105469 74.640625 149.394531 74.203125 C 149.6875 73.769531 150.015625 73.367188 150.386719 73 C 150.753906 72.628906 151.15625 72.300781 151.589844 72.007812 C 152.023438 71.71875 152.484375 71.472656 152.964844 71.273438 C 153.449219 71.074219 153.945312 70.921875 154.457031 70.820312 C 154.972656 70.71875 155.488281 70.667969 156.011719 70.667969 C 156.53125 70.667969 157.050781 70.71875 157.5625 70.820312 C 158.074219 70.921875 158.574219 71.074219 159.054688 71.273438 C 159.539062 71.472656 159.996094 71.71875 160.429688 72.007812 C 160.863281 72.300781 161.265625 72.628906 161.636719 73 C 162.003906 73.367188 162.335938 73.769531 162.625 74.203125 C 162.914062 74.640625 163.160156 75.097656 163.359375 75.578125 C 163.5625 76.0625 163.710938 76.558594 163.8125 77.074219 C 163.914062 77.585938 163.964844 78.101562 163.964844 78.625 Z M 163.964844 78.625 " fill-opacity="1" fill-rule="nonzero"/><path fill="#ffffff" d="M 188.667969 78.625 C 188.667969 79.148438 188.617188 79.664062 188.515625 80.175781 C 188.414062 80.6875 188.261719 81.1875 188.0625 81.667969 C 187.863281 82.152344 187.617188 82.609375 187.328125 83.042969 C 187.035156 83.480469 186.707031 83.878906 186.335938 84.25 C 185.96875 84.621094 185.566406 84.949219 185.132812 85.238281 C 184.699219 85.53125 184.238281 85.773438 183.757812 85.976562 C 183.273438 86.175781 182.777344 86.324219 182.265625 86.425781 C 181.75 86.53125 181.234375 86.582031 180.710938 86.582031 C 180.1875 86.582031 179.671875 86.53125 179.160156 86.425781 C 178.648438 86.324219 178.148438 86.175781 177.667969 85.976562 C 177.183594 85.773438 176.726562 85.53125 176.292969 85.238281 C 175.855469 84.949219 175.457031 84.621094 175.085938 84.25 C 174.714844 83.878906 174.386719 83.480469 174.097656 83.042969 C 173.804688 82.609375 173.5625 82.152344 173.363281 81.667969 C 173.160156 81.1875 173.011719 80.6875 172.910156 80.175781 C 172.808594 79.664062 172.753906 79.148438 172.753906 78.625 C 172.753906 78.101562 172.808594 77.585938 172.910156 77.074219 C 173.011719 76.558594 173.160156 76.0625 173.363281 75.578125 C 173.5625 75.097656 173.804688 74.640625 174.097656 74.203125 C 174.386719 73.769531 174.714844 73.367188 175.085938 73 C 175.457031 72.628906 175.855469 72.300781 176.292969 72.007812 C 176.726562 71.71875 177.183594 71.472656 177.667969 71.273438 C 178.148438 71.074219 178.648438 70.921875 179.160156 70.820312 C 179.671875 70.71875 180.1875 70.667969 180.710938 70.667969 C 181.234375 70.667969 181.75 70.71875 182.265625 70.820312 C 182.777344 70.921875 183.273438 71.074219 183.757812 71.273438 C 184.238281 71.472656 184.699219 71.71875 185.132812 72.007812 C 185.566406 72.300781 185.96875 72.628906 186.335938 73 C 186.707031 73.367188 187.035156 73.769531 187.328125 74.203125 C 187.617188 74.640625 187.863281 75.097656 188.0625 75.578125 C 188.261719 76.0625 188.414062 76.558594 188.515625 77.074219 C 188.617188 77.585938 188.667969 78.101562 188.667969 78.625 Z M 188.667969 78.625 " fill-opacity="1" fill-rule="nonzero"/><path fill="#ffffff" d="M 213.367188 78.625 C 213.367188 79.148438 213.316406 79.664062 213.214844 80.175781 C 213.113281 80.6875 212.964844 81.1875 212.761719 81.667969 C 212.5625 82.152344 212.316406 82.609375 212.027344 83.042969 C 211.738281 83.480469 211.40625 83.878906 211.039062 84.25 C 210.667969 84.621094 210.265625 84.949219 209.832031 85.238281 C 209.398438 85.53125 208.941406 85.773438 208.457031 85.976562 C 207.976562 86.175781 207.476562 86.324219 206.964844 86.425781 C 206.453125 86.53125 205.933594 86.582031 205.414062 86.582031 C 204.890625 86.582031 204.375 86.53125 203.859375 86.425781 C 203.347656 86.324219 202.851562 86.175781 202.367188 85.976562 C 201.886719 85.773438 201.425781 85.53125 200.992188 85.238281 C 200.558594 84.949219 200.15625 84.621094 199.789062 84.25 C 199.417969 83.878906 199.089844 83.480469 198.796875 83.042969 C 198.507812 82.609375 198.261719 82.152344 198.0625 81.667969 C 197.863281 81.1875 197.710938 80.6875 197.609375 80.175781 C 197.507812 79.664062 197.457031 79.148438 197.457031 78.625 C 197.457031 78.101562 197.507812 77.585938 197.609375 77.074219 C 197.710938 76.558594 197.863281 76.0625 198.0625 75.578125 C 198.261719 75.097656 198.507812 74.640625 198.796875 74.203125 C 199.089844 73.769531 199.417969 73.367188 199.789062 73 C 200.15625 72.628906 200.558594 72.300781 200.992188 72.007812 C 201.425781 71.71875 201.886719 71.472656 202.367188 71.273438 C 202.851562 71.074219 203.347656 70.921875 203.859375 70.820312 C 204.375 70.71875 204.890625 70.667969 205.414062 70.667969 C 205.933594 70.667969 206.453125 70.71875 206.964844 70.820312 C 207.476562 70.921875 207.976562 71.074219 208.457031 71.273438 C 208.941406 71.472656 209.398438 71.71875 209.832031 72.007812 C 210.265625 72.300781 210.667969 72.628906 211.039062 73 C 211.40625 73.367188 211.738281 73.769531 212.027344 74.203125 C 212.316406 74.640625 212.5625 75.097656 212.761719 75.578125 C 212.964844 76.0625 213.113281 76.558594 213.214844 77.074219 C 213.316406 77.585938 213.367188 78.101562 213.367188 78.625 Z M 213.367188 78.625 " fill-opacity="1" fill-rule="nonzero"/></svg>