<svg xmlns="http://www.w3.org/2000/svg" xmlns:xlink="http://www.w3.org/1999/xlink" width="500" zoomAndPan="magnify" viewBox="0 0 375 374.999991" height="500" preserveAspectRatio="xMidYMid meet" version="1.0"><defs><clipPath id="251867b900"><path d="M 187 321 L 219.648438 321 L 219.648438 351.769531 L 187 351.769531 Z M 187 321 " clip-rule="nonzero"/></clipPath><clipPath id="3ad8ae0e69"><path d="M 155.148438 300.019531 L 210 300.019531 L 210 347 L 155.148438 347 Z M 155.148438 300.019531 " clip-rule="nonzero"/></clipPath></defs><path fill="#2dc100" d="M 228.175781 217.652344 C 228.175781 195.246094 209.941406 177.019531 187.535156 177.019531 C 165.128906 177.019531 146.894531 195.253906 146.894531 217.652344 C 146.894531 240.054688 165.128906 258.292969 187.535156 258.292969 C 209.941406 258.292969 228.175781 240.058594 228.175781 217.652344 Z M 228.175781 217.652344 " fill-opacity="1" fill-rule="nonzero"/><path fill="#2dc100" d="M 72.1875 228.085938 C 94.058594 227.464844 111.667969 209.523438 111.667969 187.5 C 111.667969 165.085938 93.433594 146.859375 71.027344 146.859375 C 48.621094 146.859375 30.386719 165.09375 30.386719 187.5 C 30.386719 209.519531 48 227.464844 69.863281 228.085938 Z M 72.1875 228.085938 " fill-opacity="1" fill-rule="nonzero"/><path fill="#2dc100" d="M 305.167969 228.085938 C 305.167969 228.085938 305.175781 228.085938 305.183594 228.085938 C 327.058594 227.472656 344.679688 209.523438 344.679688 187.5 C 344.679688 165.085938 326.445312 146.859375 304.039062 146.859375 C 281.632812 146.859375 263.398438 165.09375 263.398438 187.5 C 263.398438 209.542969 281.054688 227.511719 302.960938 228.085938 C 302.992188 228.085938 303.027344 228.085938 303.058594 228.085938 Z M 305.167969 228.085938 " fill-opacity="1" fill-rule="nonzero"/><path fill="#2dc100" d="M 187.5 0 C 84.113281 0 0 84.113281 0 187.5 C 0 209.542969 3.757812 230.980469 11.148438 251.371094 C 20.121094 243.175781 30.601562 236.90625 41.945312 232.976562 C 26.964844 223.359375 16.988281 206.589844 16.988281 187.507812 C 16.988281 157.714844 41.230469 133.472656 71.023438 133.472656 C 100.816406 133.472656 125.054688 157.714844 125.054688 187.507812 C 125.054688 206.625 115.042969 223.417969 100.019531 233.027344 C 112.585938 237.375 124.160156 244.464844 133.875 254.128906 C 138.246094 258.507812 142.019531 263.542969 145.464844 268.875 C 149.664062 266.613281 154.039062 264.730469 158.539062 263.183594 C 143.503906 253.574219 133.492188 236.777344 133.492188 217.660156 C 133.492188 187.867188 157.734375 163.632812 187.527344 163.632812 C 217.320312 163.632812 241.558594 187.867188 241.558594 217.660156 C 241.558594 236.792969 231.535156 253.59375 216.488281 263.203125 C 220.921875 264.730469 225.242188 266.570312 229.394531 268.792969 C 240.289062 251.925781 256.425781 239.429688 274.976562 232.996094 C 259.980469 223.378906 249.996094 206.605469 249.996094 187.511719 C 249.996094 157.722656 274.238281 133.480469 304.03125 133.480469 C 333.824219 133.480469 358.066406 157.722656 358.066406 187.511719 C 358.066406 206.636719 348.054688 223.433594 333.019531 233.042969 C 344.332031 236.953125 354.777344 243.160156 363.835938 251.402344 C 371.238281 231.007812 374.992188 209.566406 374.992188 187.511719 C 374.992188 84.128906 290.878906 0.0117188 187.492188 0.0117188 Z M 187.5 0 " fill-opacity="1" fill-rule="nonzero"/><path fill="#2dc100" d="M 134.261719 276.140625 C 131.324219 271.601562 128.117188 267.308594 124.417969 263.613281 C 110.355469 249.621094 91.78125 241.761719 72.132812 241.488281 C 71.765625 241.492188 71.402344 241.539062 71.027344 241.539062 C 70.648438 241.539062 70.273438 241.492188 69.890625 241.480469 C 49.78125 241.726562 30.636719 250.21875 16.660156 264.761719 C 27.355469 288.402344 43.058594 309.882812 62.382812 327.066406 C 73.445312 337.058594 85.632812 345.527344 98.664062 352.511719 L 98.664062 347.214844 C 98.664062 341.660156 99.160156 336.152344 100.136719 330.851562 C 104.222656 308.964844 116.558594 289.414062 134.257812 276.132812 Z M 134.261719 276.140625 " fill-opacity="1" fill-rule="nonzero"/><path fill="#2dc100" d="M 261.683594 333.269531 C 258.972656 318.339844 251.800781 304.675781 240.945312 293.757812 C 236.851562 289.742188 232.546875 286.300781 228.199219 283.574219 C 203.878906 268.011719 170.980469 268.085938 146.953125 283.527344 C 129.382812 294.714844 117.132812 312.851562 113.316406 333.300781 C 112.488281 337.789062 112.066406 342.476562 112.066406 347.222656 L 112.066406 359.0625 C 113.027344 359.492188 113.992188 359.917969 114.964844 360.335938 C 116.390625 360.9375 117.816406 361.539062 119.257812 362.109375 C 120.949219 362.777344 122.652344 363.402344 124.359375 364.019531 C 125.765625 364.527344 127.164062 365.035156 128.585938 365.503906 C 130.347656 366.09375 132.121094 366.628906 133.894531 367.160156 C 135.289062 367.574219 136.675781 368.003906 138.066406 368.390625 C 139.894531 368.894531 141.730469 369.335938 143.570312 369.777344 C 144.949219 370.113281 146.324219 370.460938 147.710938 370.761719 C 149.605469 371.167969 151.511719 371.519531 153.421875 371.867188 C 154.773438 372.113281 156.121094 372.386719 157.488281 372.609375 C 159.480469 372.929688 161.496094 373.179688 163.507812 373.433594 C 164.800781 373.601562 166.089844 373.792969 167.390625 373.933594 C 169.628906 374.167969 171.878906 374.324219 174.132812 374.484375 C 175.21875 374.558594 176.296875 374.679688 177.386719 374.730469 C 180.742188 374.90625 184.117188 375.007812 187.507812 375.007812 C 190.894531 375.007812 194.277344 374.914062 197.632812 374.738281 C 198.769531 374.679688 199.902344 374.558594 201.035156 374.476562 C 203.238281 374.324219 205.441406 374.175781 207.628906 373.941406 C 209.007812 373.792969 210.375 373.585938 211.746094 373.414062 C 213.675781 373.164062 215.605469 372.929688 217.511719 372.628906 C 218.988281 372.394531 220.441406 372.101562 221.898438 371.824219 C 223.6875 371.496094 225.480469 371.175781 227.257812 370.789062 C 228.777344 370.460938 230.277344 370.078125 231.785156 369.710938 C 233.484375 369.292969 235.183594 368.894531 236.871094 368.429688 C 238.414062 368.007812 239.941406 367.539062 241.464844 367.078125 C 243.09375 366.589844 244.722656 366.101562 246.339844 365.558594 C 247.886719 365.042969 249.414062 364.488281 250.949219 363.929688 C 252.527344 363.355469 254.109375 362.777344 255.675781 362.164062 C 257.203125 361.558594 258.722656 360.925781 260.242188 360.28125 C 261.167969 359.886719 262.085938 359.476562 263.007812 359.070312 L 263.007812 347.222656 C 263.007812 342.796875 262.640625 338.425781 261.917969 334.199219 C 261.816406 333.902344 261.738281 333.589844 261.675781 333.269531 Z M 261.683594 333.269531 " fill-opacity="1" fill-rule="nonzero"/><path fill="#2dc100" d="M 305.128906 241.480469 C 304.761719 241.488281 304.40625 241.535156 304.039062 241.535156 C 303.695312 241.535156 303.367188 241.488281 303.027344 241.480469 C 277.746094 241.761719 254.472656 254.945312 240.785156 276.105469 C 244.039062 278.542969 247.265625 281.191406 250.386719 284.25 C 262.976562 296.925781 271.339844 312.664062 274.675781 329.878906 C 274.789062 330.1875 274.867188 330.515625 274.933594 330.851562 C 275.914062 336.152344 276.410156 341.660156 276.410156 347.214844 L 276.410156 352.480469 C 289.472656 345.433594 301.632812 336.976562 312.582031 327.09375 C 331.976562 309.851562 347.691406 288.335938 358.394531 264.664062 C 358.058594 264.316406 357.75 263.933594 357.414062 263.597656 C 343.351562 249.617188 324.789062 241.753906 305.144531 241.480469 Z M 305.128906 241.480469 " fill-opacity="1" fill-rule="nonzero"/><g clip-path="url(#251867b900)"><path fill="#ffffff" d="M 219.84375 332.425781 C 219.84375 327.925781 216.753906 323.9375 212.011719 321.503906 C 211.777344 321.386719 211.503906 321.53125 211.460938 321.785156 C 211.351562 322.511719 211.199219 323.230469 210.996094 323.9375 C 210.574219 325.421875 209.945312 326.878906 209.128906 328.261719 C 208.339844 329.59375 207.375 330.878906 206.25 332.070312 C 205.15625 333.230469 203.910156 334.316406 202.535156 335.300781 C 201.183594 336.273438 199.699219 337.152344 198.125 337.914062 C 196.550781 338.679688 194.871094 339.332031 193.132812 339.859375 C 191.414062 340.382812 189.648438 340.777344 187.84375 341.054688 C 187.511719 341.105469 187.402344 341.53125 187.675781 341.730469 C 191.078125 344.269531 195.855469 345.847656 201.148438 345.847656 C 201.488281 345.847656 201.832031 345.839844 202.167969 345.828125 C 206.832031 351.558594 211.046875 351.304688 212.488281 350.996094 C 212.730469 350.945312 212.855469 350.679688 212.746094 350.457031 C 212.164062 349.28125 211.570312 346.082031 211.191406 343.746094 C 216.394531 341.363281 219.84375 337.183594 219.84375 332.425781 Z M 219.84375 332.425781 " fill-opacity="1" fill-rule="nonzero"/></g><g clip-path="url(#3ad8ae0e69)"><path fill="#ffffff" d="M 201.289062 333.820312 C 202.523438 332.9375 203.644531 331.960938 204.621094 330.921875 C 205.617188 329.867188 206.472656 328.734375 207.164062 327.5625 C 207.875 326.355469 208.417969 325.09375 208.785156 323.808594 C 209.160156 322.484375 209.351562 321.121094 209.351562 319.757812 C 209.351562 318.390625 209.160156 317.027344 208.785156 315.703125 C 208.417969 314.421875 207.871094 313.15625 207.164062 311.953125 C 206.472656 310.777344 205.613281 309.648438 204.621094 308.589844 C 203.644531 307.554688 202.523438 306.578125 201.289062 305.691406 C 198.804688 303.90625 195.914062 302.507812 192.703125 301.535156 C 189.390625 300.527344 185.875 300.019531 182.253906 300.019531 C 178.632812 300.019531 175.117188 300.527344 171.804688 301.535156 C 168.59375 302.507812 165.703125 303.90625 163.214844 305.691406 C 161.984375 306.578125 160.863281 307.550781 159.882812 308.589844 C 158.890625 309.648438 158.035156 310.777344 157.34375 311.953125 C 156.632812 313.15625 156.085938 314.417969 155.722656 315.703125 C 155.34375 317.027344 155.152344 318.390625 155.152344 319.757812 C 155.152344 321.503906 155.464844 323.238281 156.082031 324.910156 C 156.675781 326.519531 157.550781 328.070312 158.683594 329.519531 C 160.746094 332.160156 163.648438 334.4375 167.109375 336.136719 C 166.773438 338.128906 166.449219 339.832031 166.132812 341.214844 C 165.488281 344.027344 165.085938 344.601562 165.019531 344.683594 C 164.757812 344.914062 164.632812 345.265625 164.691406 345.609375 C 164.746094 345.964844 164.984375 346.261719 165.316406 346.394531 C 165.371094 346.417969 165.898438 346.625 166.785156 346.753906 C 167.269531 346.824219 167.769531 346.863281 168.277344 346.863281 C 168.980469 346.863281 169.703125 346.792969 170.4375 346.65625 C 172.175781 346.332031 173.917969 345.632812 175.617188 344.574219 C 177.582031 343.347656 179.488281 341.640625 181.300781 339.484375 C 181.621094 339.492188 181.9375 339.496094 182.257812 339.496094 C 185.878906 339.496094 189.394531 338.984375 192.707031 337.980469 C 195.914062 337.003906 198.804688 335.605469 201.289062 333.820312 Z M 180.867188 337.421875 C 180.546875 337.410156 180.238281 337.550781 180.035156 337.800781 C 176.949219 341.589844 173.546875 343.949219 170.203125 344.617188 C 168.933594 344.871094 167.902344 344.835938 167.25 344.753906 C 167.285156 344.65625 167.328125 344.546875 167.363281 344.4375 C 167.59375 343.777344 167.835938 342.90625 168.082031 341.84375 C 168.460938 340.222656 168.851562 338.15625 169.25 335.707031 C 169.324219 335.253906 169.085938 334.804688 168.667969 334.613281 C 161.484375 331.324219 157.199219 325.769531 157.199219 319.757812 C 157.199219 315.097656 159.757812 310.691406 164.410156 307.355469 C 169.160156 303.945312 175.5 302.066406 182.253906 302.066406 C 189.007812 302.066406 195.34375 303.945312 200.097656 307.355469 C 204.746094 310.695312 207.308594 315.097656 207.308594 319.757812 C 207.308594 324.417969 204.746094 328.824219 200.097656 332.160156 C 195.34375 335.570312 189.007812 337.449219 182.253906 337.449219 C 181.792969 337.449219 181.328125 337.4375 180.867188 337.421875 Z M 180.867188 337.421875 " fill-opacity="1" fill-rule="nonzero"/></g><path fill="#ffffff" d="M 175.734375 320.582031 C 175.734375 320.839844 175.707031 321.101562 175.65625 321.355469 C 175.605469 321.613281 175.53125 321.863281 175.429688 322.101562 C 175.332031 322.34375 175.207031 322.574219 175.0625 322.789062 C 174.917969 323.007812 174.753906 323.207031 174.566406 323.394531 C 174.382812 323.578125 174.183594 323.742188 173.964844 323.886719 C 173.75 324.03125 173.519531 324.15625 173.277344 324.253906 C 173.035156 324.355469 172.789062 324.429688 172.53125 324.480469 C 172.273438 324.53125 172.015625 324.558594 171.753906 324.558594 C 171.492188 324.558594 171.234375 324.53125 170.980469 324.480469 C 170.722656 324.429688 170.472656 324.355469 170.234375 324.253906 C 169.992188 324.15625 169.761719 324.03125 169.546875 323.886719 C 169.328125 323.742188 169.128906 323.578125 168.941406 323.394531 C 168.757812 323.207031 168.59375 323.007812 168.449219 322.789062 C 168.300781 322.574219 168.179688 322.34375 168.082031 322.101562 C 167.980469 321.863281 167.90625 321.613281 167.855469 321.355469 C 167.804688 321.101562 167.777344 320.839844 167.777344 320.582031 C 167.777344 320.320312 167.804688 320.0625 167.855469 319.804688 C 167.90625 319.546875 167.980469 319.300781 168.082031 319.058594 C 168.179688 318.816406 168.300781 318.585938 168.449219 318.371094 C 168.59375 318.152344 168.757812 317.953125 168.941406 317.769531 C 169.128906 317.582031 169.328125 317.417969 169.546875 317.273438 C 169.761719 317.128906 169.992188 317.003906 170.234375 316.90625 C 170.472656 316.804688 170.722656 316.730469 170.980469 316.679688 C 171.234375 316.628906 171.492188 316.601562 171.753906 316.601562 C 172.015625 316.601562 172.273438 316.628906 172.53125 316.679688 C 172.789062 316.730469 173.035156 316.804688 173.277344 316.90625 C 173.519531 317.003906 173.75 317.128906 173.964844 317.273438 C 174.183594 317.417969 174.382812 317.582031 174.566406 317.769531 C 174.753906 317.953125 174.917969 318.152344 175.0625 318.371094 C 175.207031 318.585938 175.332031 318.816406 175.429688 319.058594 C 175.53125 319.300781 175.605469 319.546875 175.65625 319.804688 C 175.707031 320.0625 175.734375 320.320312 175.734375 320.582031 Z M 175.734375 320.582031 " fill-opacity="1" fill-rule="nonzero"/><path fill="#ffffff" d="M 188.082031 320.582031 C 188.082031 320.839844 188.058594 321.101562 188.007812 321.355469 C 187.957031 321.613281 187.882812 321.863281 187.78125 322.101562 C 187.679688 322.34375 187.558594 322.574219 187.414062 322.789062 C 187.269531 323.007812 187.101562 323.207031 186.917969 323.394531 C 186.734375 323.578125 186.53125 323.742188 186.316406 323.886719 C 186.097656 324.03125 185.871094 324.15625 185.628906 324.253906 C 185.386719 324.355469 185.136719 324.429688 184.882812 324.480469 C 184.625 324.53125 184.367188 324.558594 184.105469 324.558594 C 183.84375 324.558594 183.585938 324.53125 183.328125 324.480469 C 183.074219 324.429688 182.824219 324.355469 182.582031 324.253906 C 182.34375 324.15625 182.113281 324.03125 181.894531 323.886719 C 181.679688 323.742188 181.476562 323.578125 181.292969 323.394531 C 181.109375 323.207031 180.945312 323.007812 180.796875 322.789062 C 180.652344 322.574219 180.53125 322.34375 180.429688 322.101562 C 180.332031 321.863281 180.253906 321.613281 180.203125 321.355469 C 180.152344 321.101562 180.128906 320.839844 180.128906 320.582031 C 180.128906 320.320312 180.152344 320.0625 180.203125 319.804688 C 180.253906 319.546875 180.332031 319.300781 180.429688 319.058594 C 180.53125 318.816406 180.652344 318.585938 180.796875 318.371094 C 180.945312 318.152344 181.109375 317.953125 181.292969 317.769531 C 181.476562 317.582031 181.679688 317.417969 181.894531 317.273438 C 182.113281 317.128906 182.34375 317.003906 182.582031 316.90625 C 182.824219 316.804688 183.074219 316.730469 183.328125 316.679688 C 183.585938 316.628906 183.84375 316.601562 184.105469 316.601562 C 184.367188 316.601562 184.625 316.628906 184.882812 316.679688 C 185.136719 316.730469 185.386719 316.804688 185.628906 316.90625 C 185.871094 317.003906 186.097656 317.128906 186.316406 317.273438 C 186.53125 317.417969 186.734375 317.582031 186.917969 317.769531 C 187.101562 317.953125 187.269531 318.152344 187.414062 318.371094 C 187.558594 318.585938 187.679688 318.816406 187.78125 319.058594 C 187.882812 319.300781 187.957031 319.546875 188.007812 319.804688 C 188.058594 320.0625 188.082031 320.320312 188.082031 320.582031 Z M 188.082031 320.582031 " fill-opacity="1" fill-rule="nonzero"/><path fill="#ffffff" d="M 200.433594 320.582031 C 200.433594 320.839844 200.410156 321.101562 200.359375 321.355469 C 200.308594 321.613281 200.230469 321.863281 200.132812 322.101562 C 200.03125 322.34375 199.910156 322.574219 199.765625 322.789062 C 199.617188 323.007812 199.453125 323.207031 199.269531 323.394531 C 199.085938 323.578125 198.882812 323.742188 198.667969 323.886719 C 198.449219 324.03125 198.21875 324.15625 197.980469 324.253906 C 197.738281 324.355469 197.488281 324.429688 197.234375 324.480469 C 196.976562 324.53125 196.71875 324.558594 196.457031 324.558594 C 196.195312 324.558594 195.9375 324.53125 195.679688 324.480469 C 195.425781 324.429688 195.175781 324.355469 194.933594 324.253906 C 194.691406 324.15625 194.464844 324.03125 194.246094 323.886719 C 194.027344 323.742188 193.828125 323.578125 193.644531 323.394531 C 193.457031 323.207031 193.292969 323.007812 193.148438 322.789062 C 193.003906 322.574219 192.882812 322.34375 192.78125 322.101562 C 192.679688 321.863281 192.605469 321.613281 192.554688 321.355469 C 192.503906 321.101562 192.476562 320.839844 192.476562 320.582031 C 192.476562 320.320312 192.503906 320.0625 192.554688 319.804688 C 192.605469 319.546875 192.679688 319.300781 192.78125 319.058594 C 192.882812 318.816406 193.003906 318.585938 193.148438 318.371094 C 193.292969 318.152344 193.457031 317.953125 193.644531 317.769531 C 193.828125 317.582031 194.027344 317.417969 194.246094 317.273438 C 194.464844 317.128906 194.691406 317.003906 194.933594 316.90625 C 195.175781 316.804688 195.425781 316.730469 195.679688 316.679688 C 195.9375 316.628906 196.195312 316.601562 196.457031 316.601562 C 196.71875 316.601562 196.976562 316.628906 197.234375 316.679688 C 197.488281 316.730469 197.738281 316.804688 197.980469 316.90625 C 198.21875 317.003906 198.449219 317.128906 198.667969 317.273438 C 198.882812 317.417969 199.085938 317.582031 199.269531 317.769531 C 199.453125 317.953125 199.617188 318.152344 199.765625 318.371094 C 199.910156 318.585938 200.03125 318.816406 200.132812 319.058594 C 200.230469 319.300781 200.308594 319.546875 200.359375 319.804688 C 200.410156 320.0625 200.433594 320.320312 200.433594 320.582031 Z M 200.433594 320.582031 " fill-opacity="1" fill-rule="nonzero"/></svg>