<svg xmlns="http://www.w3.org/2000/svg" xmlns:xlink="http://www.w3.org/1999/xlink" width="500" zoomAndPan="magnify" viewBox="0 0 375 374.999991" height="500" preserveAspectRatio="xMidYMid meet" version="1.0"><defs><clipPath id="6922225859"><path d="M 2.28125 2 L 372.78125 2 L 372.78125 374 L 2.28125 374 Z M 2.28125 2 " clip-rule="nonzero"/></clipPath><clipPath id="1bc6df6145"><path d="M 60.8125 59 L 312 59 L 312 314 L 60.8125 314 Z M 60.8125 59 " clip-rule="nonzero"/></clipPath></defs><g clip-path="url(#6922225859)"><path fill="#2dc100" d="M 187.53125 373.144531 C 85.378906 373.144531 2.28125 290.058594 2.28125 187.929688 C 2.28125 85.796875 85.378906 2.714844 187.53125 2.714844 C 289.679688 2.714844 372.78125 85.796875 372.78125 187.929688 C 372.78125 290.058594 289.679688 373.144531 187.53125 373.144531 Z M 187.53125 18.148438 C 93.902344 18.148438 17.71875 94.335938 17.71875 187.929688 C 17.71875 281.523438 93.902344 357.710938 187.53125 357.710938 C 281.144531 357.710938 357.34375 281.523438 357.34375 187.929688 C 357.34375 94.335938 281.144531 18.148438 187.53125 18.148438 Z M 187.53125 18.148438 " fill-opacity="1" fill-rule="nonzero"/></g><g clip-path="url(#1bc6df6145)"><path fill="#000000" d="M 131.039062 296.503906 L 64.714844 296.503906 C 64.199219 296.503906 63.699219 296.40625 63.222656 296.207031 C 62.746094 296.007812 62.324219 295.726562 61.957031 295.359375 C 61.589844 294.996094 61.308594 294.574219 61.109375 294.09375 C 60.914062 293.617188 60.8125 293.121094 60.8125 292.601562 L 60.8125 268.257812 C 60.8125 266.65625 60.894531 265.058594 61.050781 263.464844 C 61.207031 261.875 61.441406 260.292969 61.753906 258.722656 C 62.0625 257.152344 62.453125 255.601562 62.917969 254.070312 C 63.378906 252.539062 63.917969 251.03125 64.53125 249.554688 C 65.144531 248.074219 65.824219 246.628906 66.578125 245.214844 C 67.332031 243.804688 68.15625 242.433594 69.042969 241.101562 C 69.929688 239.769531 70.882812 238.484375 71.898438 237.246094 C 72.914062 236.007812 73.984375 234.824219 75.117188 233.691406 C 76.246094 232.558594 77.429688 231.484375 78.667969 230.464844 C 79.902344 229.449219 81.1875 228.496094 82.515625 227.605469 C 83.847656 226.714844 85.21875 225.890625 86.628906 225.136719 C 88.039062 224.378906 89.484375 223.695312 90.960938 223.082031 C 92.441406 222.464844 93.945312 221.925781 95.476562 221.457031 C 97.007812 220.992188 98.558594 220.601562 100.125 220.285156 C 101.695312 219.972656 103.277344 219.734375 104.871094 219.578125 C 106.460938 219.417969 108.058594 219.335938 109.660156 219.332031 L 124.484375 219.332031 C 126.414062 219.390625 128.332031 219.5625 130.238281 219.84375 C 132.144531 220.128906 134.03125 220.527344 135.890625 221.03125 C 137.75 221.539062 139.574219 222.15625 141.363281 222.878906 C 143.152344 223.601562 144.890625 224.429688 146.578125 225.359375 C 148.269531 226.289062 149.898438 227.3125 151.464844 228.4375 C 153.035156 229.558594 154.53125 230.769531 155.957031 232.070312 C 157.382812 233.367188 158.722656 234.75 159.984375 236.207031 C 161.246094 237.664062 162.417969 239.195312 163.5 240.792969 C 163.804688 241.292969 163.996094 241.839844 164.078125 242.421875 C 164.160156 243.003906 164.121094 243.578125 163.96875 244.148438 C 163.789062 244.734375 163.484375 245.246094 163.058594 245.6875 C 162.632812 246.125 162.128906 246.445312 161.546875 246.644531 C 159.597656 247.375 157.710938 248.246094 155.890625 249.261719 C 154.070312 250.28125 152.339844 251.429688 150.695312 252.707031 C 149.046875 253.988281 147.507812 255.382812 146.074219 256.894531 C 144.640625 258.410156 143.332031 260.023438 142.140625 261.734375 C 140.953125 263.445312 139.902344 265.238281 138.984375 267.109375 C 138.066406 268.980469 137.296875 270.910156 136.671875 272.898438 C 136.050781 274.886719 135.578125 276.914062 135.261719 278.972656 C 134.945312 281.03125 134.785156 283.105469 134.785156 285.1875 L 134.785156 292.601562 C 134.785156 293.105469 134.691406 293.59375 134.503906 294.058594 C 134.316406 294.527344 134.046875 294.941406 133.699219 295.308594 C 133.347656 295.671875 132.945312 295.957031 132.484375 296.164062 C 132.023438 296.371094 131.542969 296.484375 131.039062 296.503906 Z M 68.617188 288.699219 L 127.214844 288.699219 L 127.214844 285.1875 C 127.222656 282.921875 127.386719 280.664062 127.703125 278.417969 C 128.023438 276.171875 128.496094 273.960938 129.121094 271.78125 C 129.746094 269.601562 130.519531 267.472656 131.4375 265.402344 C 132.359375 263.328125 133.417969 261.328125 134.613281 259.402344 C 135.808594 257.476562 137.132812 255.640625 138.582031 253.894531 C 140.035156 252.152344 141.597656 250.515625 143.273438 248.988281 C 144.949219 247.464844 146.726562 246.058594 148.597656 244.777344 C 150.46875 243.496094 152.417969 242.347656 154.449219 241.335938 C 152.582031 239.179688 150.511719 237.234375 148.238281 235.507812 C 145.964844 233.78125 143.539062 232.304688 140.960938 231.082031 C 138.382812 229.859375 135.703125 228.917969 132.929688 228.253906 C 130.152344 227.585938 127.339844 227.214844 124.484375 227.136719 L 109.660156 227.136719 C 108.316406 227.140625 106.972656 227.207031 105.632812 227.339844 C 104.296875 227.476562 102.96875 227.675781 101.648438 227.941406 C 100.328125 228.203125 99.027344 228.53125 97.742188 228.925781 C 96.453125 229.316406 95.191406 229.773438 93.949219 230.289062 C 92.707031 230.804688 91.492188 231.382812 90.304688 232.015625 C 89.121094 232.652344 87.96875 233.34375 86.851562 234.09375 C 85.734375 234.84375 84.65625 235.644531 83.617188 236.5 C 82.578125 237.351562 81.582031 238.257812 80.632812 239.207031 C 79.683594 240.160156 78.78125 241.15625 77.929688 242.195312 C 77.078125 243.238281 76.277344 244.316406 75.53125 245.4375 C 74.785156 246.554688 74.09375 247.707031 73.460938 248.894531 C 72.828125 250.082031 72.253906 251.296875 71.738281 252.539062 C 71.226562 253.78125 70.773438 255.046875 70.382812 256.335938 C 69.992188 257.621094 69.667969 258.925781 69.40625 260.246094 C 69.144531 261.5625 68.945312 262.894531 68.816406 264.230469 C 68.683594 265.570312 68.617188 266.914062 68.617188 268.257812 Z M 116.527344 206.226562 C 115.46875 206.226562 114.410156 206.179688 113.359375 206.078125 C 112.304688 205.976562 111.257812 205.824219 110.21875 205.617188 C 109.179688 205.414062 108.15625 205.160156 107.140625 204.855469 C 106.128906 204.550781 105.132812 204.195312 104.152344 203.792969 C 103.171875 203.390625 102.214844 202.941406 101.28125 202.445312 C 100.347656 201.945312 99.441406 201.40625 98.558594 200.820312 C 97.675781 200.234375 96.828125 199.605469 96.007812 198.933594 C 95.1875 198.265625 94.402344 197.554688 93.652344 196.808594 C 92.902344 196.0625 92.191406 195.28125 91.515625 194.464844 C 90.84375 193.648438 90.214844 192.796875 89.625 191.917969 C 89.035156 191.039062 88.488281 190.136719 87.988281 189.203125 C 87.488281 188.269531 87.03125 187.316406 86.625 186.335938 C 86.21875 185.359375 85.859375 184.367188 85.550781 183.351562 C 85.242188 182.339844 84.984375 181.316406 84.777344 180.277344 C 84.566406 179.238281 84.410156 178.195312 84.304688 177.140625 C 84.199219 176.089844 84.144531 175.03125 84.144531 173.972656 C 84.144531 172.914062 84.191406 171.859375 84.296875 170.804688 C 84.398438 169.75 84.550781 168.707031 84.753906 167.667969 C 84.960938 166.628906 85.214844 165.601562 85.523438 164.589844 C 85.828125 163.574219 86.183594 162.582031 86.585938 161.601562 C 86.988281 160.625 87.441406 159.667969 87.9375 158.734375 C 88.4375 157.796875 88.976562 156.890625 89.566406 156.011719 C 90.152344 155.128906 90.78125 154.277344 91.453125 153.460938 C 92.121094 152.640625 92.832031 151.855469 93.578125 151.105469 C 94.324219 150.359375 95.109375 149.648438 95.925781 148.972656 C 96.742188 148.300781 97.59375 147.671875 98.472656 147.082031 C 99.351562 146.492188 100.257812 145.949219 101.191406 145.449219 C 102.125 144.949219 103.078125 144.496094 104.054688 144.089844 C 105.035156 143.683594 106.027344 143.328125 107.042969 143.019531 C 108.054688 142.710938 109.078125 142.453125 110.117188 142.246094 C 111.15625 142.035156 112.199219 141.882812 113.253906 141.777344 C 114.308594 141.671875 115.363281 141.617188 116.421875 141.617188 C 117.480469 141.617188 118.535156 141.667969 119.589844 141.769531 C 120.644531 141.875 121.691406 142.027344 122.726562 142.234375 C 123.765625 142.441406 124.792969 142.695312 125.804688 143.003906 C 126.816406 143.308594 127.8125 143.664062 128.792969 144.070312 C 129.769531 144.472656 130.726562 144.925781 131.660156 145.425781 C 132.59375 145.921875 133.5 146.464844 134.382812 147.054688 C 135.261719 147.640625 136.113281 148.269531 136.929688 148.941406 C 137.75 149.613281 138.53125 150.320312 139.28125 151.070312 C 140.03125 151.820312 140.738281 152.601562 141.410156 153.417969 C 142.082031 154.238281 142.714844 155.085938 143.300781 155.964844 C 143.890625 156.847656 144.433594 157.753906 144.933594 158.6875 C 145.433594 159.621094 145.886719 160.574219 146.289062 161.554688 C 146.695312 162.53125 147.050781 163.527344 147.359375 164.539062 C 147.667969 165.550781 147.921875 166.578125 148.128906 167.617188 C 148.335938 168.65625 148.492188 169.699219 148.597656 170.753906 C 148.699219 171.808594 148.75 172.863281 148.75 173.921875 C 148.75 174.976562 148.699219 176.03125 148.597656 177.082031 C 148.492188 178.132812 148.339844 179.179688 148.132812 180.214844 C 147.925781 181.25 147.671875 182.273438 147.363281 183.285156 C 147.058594 184.296875 146.703125 185.289062 146.300781 186.265625 C 145.898438 187.242188 145.445312 188.195312 144.949219 189.128906 C 144.453125 190.058594 143.910156 190.964844 143.324219 191.84375 C 142.738281 192.722656 142.109375 193.570312 141.441406 194.386719 C 140.773438 195.207031 140.0625 195.988281 139.316406 196.734375 C 138.570312 197.484375 137.789062 198.195312 136.976562 198.863281 C 136.160156 199.535156 135.3125 200.164062 134.4375 200.753906 C 133.558594 201.34375 132.652344 201.886719 131.722656 202.386719 C 130.792969 202.886719 129.839844 203.335938 128.863281 203.742188 C 127.890625 204.148438 126.894531 204.507812 125.886719 204.816406 C 124.875 205.125 123.851562 205.382812 122.816406 205.589844 C 121.78125 205.800781 120.738281 205.957031 119.6875 206.0625 C 118.636719 206.167969 117.582031 206.222656 116.527344 206.226562 Z M 116.527344 149.421875 C 115.722656 149.417969 114.921875 149.453125 114.121094 149.53125 C 113.324219 149.605469 112.53125 149.722656 111.742188 149.875 C 110.953125 150.03125 110.175781 150.222656 109.40625 150.453125 C 108.636719 150.683594 107.882812 150.953125 107.136719 151.257812 C 106.394531 151.5625 105.667969 151.902344 104.960938 152.28125 C 104.25 152.65625 103.5625 153.066406 102.894531 153.511719 C 102.222656 153.957031 101.578125 154.433594 100.957031 154.941406 C 100.335938 155.449219 99.738281 155.984375 99.167969 156.550781 C 98.601562 157.117188 98.058594 157.710938 97.550781 158.328125 C 97.039062 158.949219 96.558594 159.589844 96.109375 160.257812 C 95.664062 160.925781 95.25 161.613281 94.867188 162.320312 C 94.488281 163.027344 94.144531 163.75 93.835938 164.492188 C 93.527344 165.230469 93.253906 165.988281 93.019531 166.753906 C 92.785156 167.523438 92.585938 168.300781 92.429688 169.085938 C 92.269531 169.875 92.152344 170.667969 92.070312 171.464844 C 91.992188 172.265625 91.949219 173.066406 91.949219 173.871094 C 91.945312 174.671875 91.984375 175.472656 92.058594 176.273438 C 92.136719 177.070312 92.253906 177.867188 92.410156 178.652344 C 92.5625 179.441406 92.757812 180.21875 92.988281 180.988281 C 93.21875 181.757812 93.488281 182.511719 93.796875 183.253906 C 94.101562 183.996094 94.441406 184.722656 94.820312 185.433594 C 95.195312 186.140625 95.609375 186.828125 96.054688 187.496094 C 96.496094 188.167969 96.976562 188.8125 97.484375 189.433594 C 97.992188 190.054688 98.527344 190.648438 99.097656 191.21875 C 99.664062 191.785156 100.257812 192.328125 100.875 192.835938 C 101.496094 193.347656 102.140625 193.824219 102.804688 194.273438 C 103.472656 194.71875 104.160156 195.132812 104.867188 195.511719 C 105.574219 195.890625 106.300781 196.234375 107.042969 196.542969 C 107.785156 196.851562 108.539062 197.125 109.304688 197.359375 C 110.074219 197.59375 110.851562 197.789062 111.640625 197.945312 C 112.425781 198.101562 113.21875 198.222656 114.019531 198.300781 C 114.816406 198.382812 115.617188 198.421875 116.421875 198.421875 C 117.226562 198.421875 118.027344 198.382812 118.824219 198.304688 C 119.625 198.230469 120.417969 198.113281 121.207031 197.957031 C 121.992188 197.800781 122.773438 197.605469 123.539062 197.375 C 124.308594 197.140625 125.0625 196.871094 125.804688 196.566406 C 126.546875 196.257812 127.273438 195.914062 127.980469 195.539062 C 128.691406 195.160156 129.378906 194.746094 130.046875 194.300781 C 130.714844 193.855469 131.359375 193.378906 131.980469 192.871094 C 132.601562 192.359375 133.195312 191.824219 133.761719 191.253906 C 134.332031 190.6875 134.871094 190.09375 135.378906 189.472656 C 135.890625 188.851562 136.367188 188.207031 136.8125 187.542969 C 137.261719 186.875 137.671875 186.1875 138.050781 185.476562 C 138.429688 184.769531 138.773438 184.046875 139.082031 183.304688 C 139.390625 182.5625 139.660156 181.804688 139.890625 181.039062 C 140.125 180.269531 140.320312 179.492188 140.476562 178.703125 C 140.632812 177.917969 140.753906 177.125 140.832031 176.324219 C 140.910156 175.527344 140.949219 174.722656 140.949219 173.921875 C 140.945312 173.121094 140.90625 172.324219 140.824219 171.527344 C 140.742188 170.730469 140.625 169.941406 140.46875 169.15625 C 140.308594 168.371094 140.113281 167.597656 139.882812 166.832031 C 139.648438 166.066406 139.378906 165.3125 139.070312 164.574219 C 138.765625 163.835938 138.421875 163.113281 138.042969 162.410156 C 137.667969 161.703125 137.257812 161.015625 136.8125 160.351562 C 136.367188 159.6875 135.890625 159.042969 135.386719 158.425781 C 134.878906 157.804688 134.34375 157.214844 133.777344 156.648438 C 133.214844 156.082031 132.621094 155.542969 132.003906 155.035156 C 131.386719 154.523438 130.746094 154.046875 130.082031 153.601562 C 129.417969 153.152344 128.734375 152.742188 128.03125 152.363281 C 127.324219 151.980469 126.605469 151.636719 125.867188 151.328125 C 125.128906 151.019531 124.378906 150.746094 123.613281 150.511719 C 122.847656 150.277344 122.074219 150.078125 121.289062 149.917969 C 120.503906 149.757812 119.714844 149.636719 118.921875 149.554688 C 118.125 149.46875 117.328125 149.425781 116.527344 149.421875 Z M 308.085938 296.503906 L 234.660156 296.503906 C 234.144531 296.503906 233.644531 296.40625 233.167969 296.207031 C 232.691406 296.007812 232.269531 295.726562 231.902344 295.359375 C 231.535156 294.996094 231.253906 294.574219 231.054688 294.09375 C 230.859375 293.617188 230.757812 293.121094 230.757812 292.601562 L 230.757812 285.1875 C 230.765625 283.332031 230.644531 281.484375 230.398438 279.644531 C 230.15625 277.804688 229.789062 275.992188 229.296875 274.199219 C 228.804688 272.410156 228.199219 270.664062 227.46875 268.953125 C 226.742188 267.246094 225.902344 265.597656 224.953125 264.003906 C 224 262.410156 222.949219 260.886719 221.789062 259.433594 C 220.632812 257.984375 219.382812 256.617188 218.042969 255.335938 C 216.699219 254.054688 215.277344 252.867188 213.773438 251.777344 C 212.273438 250.6875 210.703125 249.707031 209.066406 248.828125 C 208.132812 248.296875 207.507812 247.515625 207.195312 246.488281 C 206.878906 245.417969 207.011719 244.402344 207.585938 243.445312 C 208.613281 241.667969 209.753906 239.960938 211 238.328125 C 212.246094 236.699219 213.589844 235.152344 215.035156 233.691406 C 216.476562 232.230469 218.007812 230.867188 219.625 229.597656 C 221.242188 228.332031 222.933594 227.175781 224.699219 226.125 C 226.464844 225.074219 228.289062 224.140625 230.171875 223.320312 C 232.054688 222.503906 233.984375 221.804688 235.957031 221.234375 C 237.929688 220.660156 239.929688 220.214844 241.957031 219.898438 C 243.988281 219.578125 246.027344 219.390625 248.082031 219.332031 L 262.90625 219.332031 C 264.507812 219.332031 266.105469 219.414062 267.703125 219.570312 C 269.296875 219.726562 270.878906 219.960938 272.449219 220.273438 C 274.023438 220.585938 275.574219 220.976562 277.109375 221.441406 C 278.640625 221.90625 280.148438 222.445312 281.628906 223.058594 C 283.109375 223.671875 284.554688 224.355469 285.96875 225.109375 C 287.382812 225.867188 288.753906 226.6875 290.085938 227.578125 C 291.417969 228.46875 292.703125 229.421875 293.945312 230.4375 C 295.183594 231.457031 296.367188 232.53125 297.5 233.664062 C 298.632812 234.796875 299.707031 235.980469 300.726562 237.21875 C 301.742188 238.460938 302.695312 239.746094 303.585938 241.078125 C 304.476562 242.410156 305.296875 243.78125 306.054688 245.195312 C 306.808594 246.609375 307.492188 248.054688 308.105469 249.535156 C 308.71875 251.015625 309.257812 252.523438 309.722656 254.054688 C 310.1875 255.589844 310.578125 257.140625 310.890625 258.710938 C 311.203125 260.285156 311.4375 261.867188 311.59375 263.460938 C 311.75 265.054688 311.832031 266.65625 311.832031 268.257812 L 311.832031 292.601562 C 311.832031 293.105469 311.738281 293.59375 311.546875 294.058594 C 311.359375 294.527344 311.09375 294.941406 310.742188 295.308594 C 310.394531 295.671875 309.988281 295.957031 309.53125 296.164062 C 309.070312 296.371094 308.589844 296.484375 308.085938 296.503906 Z M 238.5625 288.699219 L 304.183594 288.699219 L 304.183594 268.257812 C 304.183594 266.910156 304.117188 265.566406 303.984375 264.226562 C 303.851562 262.886719 303.65625 261.554688 303.394531 260.234375 C 303.128906 258.914062 302.804688 257.609375 302.414062 256.320312 C 302.023438 255.03125 301.570312 253.765625 301.054688 252.519531 C 300.539062 251.277344 299.960938 250.0625 299.328125 248.875 C 298.691406 247.683594 298 246.53125 297.253906 245.410156 C 296.503906 244.292969 295.703125 243.210938 294.847656 242.171875 C 293.996094 241.128906 293.089844 240.132812 292.140625 239.179688 C 291.1875 238.226562 290.191406 237.324219 289.148438 236.46875 C 288.109375 235.617188 287.027344 234.816406 285.90625 234.066406 C 284.789062 233.320312 283.632812 232.625 282.445312 231.992188 C 281.257812 231.355469 280.042969 230.78125 278.800781 230.265625 C 277.554688 229.75 276.289062 229.296875 275 228.90625 C 273.710938 228.515625 272.40625 228.1875 271.085938 227.925781 C 269.765625 227.664062 268.433594 227.464844 267.09375 227.335938 C 265.753906 227.203125 264.410156 227.136719 263.0625 227.136719 L 248.082031 227.136719 C 246.515625 227.175781 244.957031 227.308594 243.402344 227.527344 C 241.851562 227.75 240.316406 228.058594 238.800781 228.457031 C 237.285156 228.851562 235.796875 229.335938 234.335938 229.902344 C 232.875 230.472656 231.453125 231.121094 230.066406 231.851562 C 228.679688 232.585938 227.339844 233.394531 226.046875 234.277344 C 224.753906 235.164062 223.515625 236.121094 222.335938 237.148438 C 221.152344 238.179688 220.03125 239.269531 218.972656 240.425781 C 217.917969 241.585938 216.929688 242.796875 216.011719 244.070312 C 217.71875 245.175781 219.351562 246.386719 220.90625 247.699219 C 222.460938 249.007812 223.929688 250.414062 225.3125 251.90625 C 226.691406 253.402344 227.976562 254.976562 229.160156 256.628906 C 230.347656 258.285156 231.421875 260.003906 232.394531 261.792969 C 233.363281 263.582031 234.222656 265.425781 234.960938 267.320312 C 235.703125 269.214844 236.324219 271.148438 236.824219 273.121094 C 237.324219 275.09375 237.699219 277.089844 237.953125 279.109375 C 238.203125 281.128906 238.328125 283.15625 238.328125 285.1875 Z M 256.273438 206.226562 C 255.214844 206.226562 254.160156 206.171875 253.109375 206.070312 C 252.054688 205.964844 251.011719 205.8125 249.972656 205.605469 C 248.933594 205.398438 247.910156 205.140625 246.898438 204.835938 C 245.882812 204.527344 244.890625 204.171875 243.914062 203.765625 C 242.933594 203.359375 241.980469 202.910156 241.046875 202.410156 C 240.113281 201.910156 239.207031 201.367188 238.328125 200.78125 C 237.449219 200.191406 236.597656 199.5625 235.78125 198.890625 C 234.964844 198.222656 234.179688 197.511719 233.433594 196.761719 C 232.683594 196.015625 231.972656 195.234375 231.304688 194.414062 C 230.632812 193.597656 230.003906 192.746094 229.414062 191.867188 C 228.828125 190.988281 228.285156 190.082031 227.785156 189.148438 C 227.285156 188.214844 226.835938 187.261719 226.429688 186.285156 C 226.023438 185.304688 225.667969 184.3125 225.363281 183.296875 C 225.054688 182.285156 224.796875 181.261719 224.589844 180.222656 C 224.386719 179.1875 224.230469 178.140625 224.125 177.085938 C 224.023438 176.035156 223.972656 174.980469 223.96875 173.921875 C 223.972656 172.863281 224.023438 171.808594 224.125 170.753906 C 224.230469 169.703125 224.386719 168.65625 224.589844 167.621094 C 224.796875 166.582031 225.054688 165.558594 225.363281 164.542969 C 225.667969 163.53125 226.023438 162.535156 226.429688 161.558594 C 226.835938 160.582031 227.285156 159.625 227.785156 158.695312 C 228.285156 157.761719 228.828125 156.855469 229.414062 155.972656 C 230.003906 155.09375 230.632812 154.246094 231.304688 153.429688 C 231.972656 152.609375 232.683594 151.828125 233.433594 151.078125 C 234.179688 150.332031 234.964844 149.621094 235.78125 148.949219 C 236.597656 148.277344 237.449219 147.648438 238.328125 147.0625 C 239.207031 146.472656 240.113281 145.929688 241.046875 145.433594 C 241.980469 144.933594 242.933594 144.480469 243.914062 144.078125 C 244.890625 143.671875 245.882812 143.316406 246.898438 143.007812 C 247.910156 142.703125 248.933594 142.445312 249.972656 142.238281 C 251.011719 142.03125 252.054688 141.878906 253.109375 141.773438 C 254.160156 141.667969 255.214844 141.617188 256.273438 141.617188 C 257.332031 141.617188 258.386719 141.667969 259.441406 141.773438 C 260.492188 141.878906 261.539062 142.03125 262.578125 142.238281 C 263.613281 142.445312 264.640625 142.703125 265.652344 143.007812 C 266.664062 143.316406 267.660156 143.671875 268.636719 144.078125 C 269.613281 144.480469 270.570312 144.933594 271.503906 145.433594 C 272.433594 145.929688 273.339844 146.472656 274.222656 147.0625 C 275.101562 147.648438 275.949219 148.277344 276.765625 148.949219 C 277.585938 149.621094 278.367188 150.332031 279.117188 151.078125 C 279.863281 151.828125 280.574219 152.609375 281.246094 153.429688 C 281.917969 154.246094 282.546875 155.09375 283.132812 155.972656 C 283.722656 156.855469 284.265625 157.761719 284.761719 158.695312 C 285.261719 159.625 285.714844 160.582031 286.117188 161.558594 C 286.523438 162.535156 286.878906 163.53125 287.1875 164.542969 C 287.492188 165.558594 287.75 166.582031 287.957031 167.621094 C 288.164062 168.65625 288.320312 169.703125 288.421875 170.753906 C 288.527344 171.808594 288.578125 172.863281 288.578125 173.921875 C 288.574219 174.980469 288.519531 176.035156 288.414062 177.085938 C 288.308594 178.136719 288.152344 179.179688 287.945312 180.21875 C 287.734375 181.253906 287.476562 182.277344 287.167969 183.289062 C 286.859375 184.300781 286.503906 185.296875 286.097656 186.269531 C 285.691406 187.246094 285.238281 188.203125 284.742188 189.132812 C 284.242188 190.066406 283.699219 190.972656 283.109375 191.851562 C 282.523438 192.730469 281.890625 193.578125 281.222656 194.394531 C 280.550781 195.210938 279.839844 195.992188 279.09375 196.742188 C 278.347656 197.488281 277.5625 198.199219 276.746094 198.867188 C 275.929688 199.539062 275.082031 200.167969 274.203125 200.757812 C 273.324219 201.34375 272.417969 201.886719 271.488281 202.386719 C 270.554688 202.886719 269.601562 203.339844 268.625 203.746094 C 267.648438 204.152344 266.652344 204.507812 265.644531 204.816406 C 264.632812 205.125 263.609375 205.382812 262.570312 205.589844 C 261.535156 205.800781 260.488281 205.957031 259.4375 206.0625 C 258.386719 206.167969 257.332031 206.222656 256.273438 206.226562 Z M 256.273438 149.421875 C 255.472656 149.421875 254.671875 149.460938 253.871094 149.539062 C 253.074219 149.617188 252.28125 149.734375 251.496094 149.890625 C 250.707031 150.046875 249.929688 150.242188 249.160156 150.476562 C 248.394531 150.707031 247.640625 150.980469 246.898438 151.285156 C 246.15625 151.59375 245.433594 151.933594 244.726562 152.3125 C 244.015625 152.691406 243.328125 153.105469 242.664062 153.550781 C 241.996094 153.996094 241.351562 154.472656 240.730469 154.980469 C 240.109375 155.492188 239.515625 156.03125 238.949219 156.597656 C 238.382812 157.164062 237.84375 157.757812 237.335938 158.378906 C 236.824219 159 236.347656 159.640625 235.902344 160.308594 C 235.457031 160.976562 235.042969 161.664062 234.667969 162.371094 C 234.289062 163.078125 233.945312 163.804688 233.636719 164.546875 C 233.332031 165.285156 233.0625 166.042969 232.828125 166.808594 C 232.59375 167.578125 232.402344 168.355469 232.246094 169.140625 C 232.085938 169.929688 231.96875 170.722656 231.890625 171.519531 C 231.8125 172.320312 231.773438 173.117188 231.773438 173.921875 C 231.773438 174.722656 231.8125 175.523438 231.890625 176.324219 C 231.96875 177.121094 232.085938 177.914062 232.246094 178.703125 C 232.402344 179.488281 232.59375 180.265625 232.828125 181.035156 C 233.0625 181.800781 233.332031 182.554688 233.636719 183.296875 C 233.945312 184.039062 234.289062 184.761719 234.667969 185.472656 C 235.042969 186.179688 235.457031 186.867188 235.902344 187.535156 C 236.347656 188.199219 236.824219 188.84375 237.335938 189.464844 C 237.84375 190.085938 238.382812 190.679688 238.949219 191.246094 C 239.515625 191.8125 240.109375 192.351562 240.730469 192.859375 C 241.351562 193.371094 241.996094 193.847656 242.664062 194.292969 C 243.328125 194.738281 244.015625 195.152344 244.726562 195.527344 C 245.433594 195.90625 246.15625 196.25 246.898438 196.558594 C 247.640625 196.863281 248.394531 197.132812 249.160156 197.367188 C 249.929688 197.601562 250.707031 197.792969 251.496094 197.953125 C 252.28125 198.109375 253.074219 198.226562 253.871094 198.304688 C 254.671875 198.382812 255.472656 198.421875 256.273438 198.421875 C 257.078125 198.421875 257.878906 198.382812 258.675781 198.304688 C 259.472656 198.226562 260.265625 198.109375 261.054688 197.953125 C 261.839844 197.792969 262.617188 197.601562 263.386719 197.367188 C 264.15625 197.132812 264.910156 196.863281 265.648438 196.558594 C 266.390625 196.25 267.117188 195.90625 267.824219 195.527344 C 268.53125 195.152344 269.21875 194.738281 269.886719 194.292969 C 270.554688 193.847656 271.195312 193.371094 271.816406 192.859375 C 272.4375 192.351562 273.03125 191.8125 273.597656 191.246094 C 274.167969 190.679688 274.703125 190.085938 275.214844 189.464844 C 275.722656 188.84375 276.199219 188.199219 276.644531 187.535156 C 277.089844 186.867188 277.503906 186.179688 277.882812 185.472656 C 278.261719 184.761719 278.601562 184.039062 278.910156 183.296875 C 279.21875 182.554688 279.488281 181.800781 279.71875 181.035156 C 279.953125 180.265625 280.148438 179.488281 280.304688 178.703125 C 280.460938 177.914062 280.578125 177.121094 280.65625 176.324219 C 280.734375 175.523438 280.773438 174.722656 280.773438 173.921875 C 280.773438 173.121094 280.730469 172.320312 280.648438 171.523438 C 280.570312 170.726562 280.449219 169.933594 280.292969 169.148438 C 280.132812 168.359375 279.9375 167.585938 279.703125 166.816406 C 279.46875 166.050781 279.195312 165.296875 278.890625 164.558594 C 278.582031 163.816406 278.238281 163.09375 277.859375 162.386719 C 277.480469 161.679688 277.066406 160.996094 276.621094 160.328125 C 276.175781 159.660156 275.699219 159.019531 275.191406 158.398438 C 274.679688 157.78125 274.144531 157.1875 273.578125 156.621094 C 273.007812 156.050781 272.417969 155.515625 271.796875 155.003906 C 271.175781 154.496094 270.535156 154.019531 269.867188 153.574219 C 269.203125 153.128906 268.515625 152.714844 267.808594 152.335938 C 267.101562 151.957031 266.378906 151.613281 265.636719 151.304688 C 264.898438 151 264.144531 150.726562 263.378906 150.492188 C 262.609375 150.257812 261.835938 150.0625 261.046875 149.902344 C 260.261719 149.746094 259.472656 149.625 258.671875 149.546875 C 257.875 149.464844 257.074219 149.421875 256.273438 149.421875 Z M 234.660156 313.28125 L 131.039062 313.28125 C 130.523438 313.28125 130.023438 313.179688 129.546875 312.980469 C 129.070312 312.785156 128.648438 312.503906 128.28125 312.136719 C 127.914062 311.769531 127.632812 311.347656 127.433594 310.871094 C 127.238281 310.394531 127.136719 309.894531 127.136719 309.378906 L 127.136719 285.1875 C 127.132812 283.945312 127.175781 282.699219 127.265625 281.457031 C 127.355469 280.214844 127.492188 278.976562 127.675781 277.742188 C 127.859375 276.511719 128.089844 275.289062 128.367188 274.074219 C 128.644531 272.859375 128.96875 271.65625 129.339844 270.46875 C 129.707031 269.277344 130.121094 268.101562 130.582031 266.945312 C 131.039062 265.785156 131.542969 264.648438 132.089844 263.527344 C 132.636719 262.410156 133.222656 261.3125 133.851562 260.234375 C 134.484375 259.160156 135.152344 258.113281 135.863281 257.089844 C 136.574219 256.066406 137.320312 255.070312 138.109375 254.101562 C 138.894531 253.136719 139.714844 252.203125 140.574219 251.296875 C 141.429688 250.394531 142.320312 249.523438 143.246094 248.6875 C 144.171875 247.851562 145.125 247.054688 146.109375 246.289062 C 147.09375 245.527344 148.109375 244.804688 149.148438 244.117188 C 150.1875 243.433594 151.253906 242.789062 152.34375 242.183594 C 153.433594 241.582031 154.542969 241.019531 155.675781 240.5 C 156.808594 239.980469 157.960938 239.507812 159.128906 239.074219 C 164.589844 237.042969 170.234375 236.027344 176.0625 236.03125 L 190.886719 236.03125 C 192.464844 236.070312 194.035156 236.183594 195.601562 236.375 C 197.167969 236.5625 198.71875 236.828125 200.257812 237.167969 C 201.800781 237.507812 203.320312 237.921875 204.820312 238.410156 C 206.320312 238.898438 207.792969 239.457031 209.238281 240.089844 C 210.683594 240.71875 212.09375 241.417969 213.472656 242.183594 C 214.851562 242.953125 216.191406 243.785156 217.488281 244.679688 C 218.785156 245.578125 220.035156 246.535156 221.242188 247.550781 C 222.445312 248.570312 223.597656 249.644531 224.699219 250.773438 C 225.800781 251.902344 226.84375 253.082031 227.828125 254.3125 C 228.816406 255.542969 229.742188 256.820312 230.605469 258.140625 C 231.464844 259.460938 232.265625 260.820312 232.996094 262.21875 C 233.726562 263.613281 234.386719 265.042969 234.980469 266.503906 C 235.574219 267.96875 236.09375 269.453125 236.542969 270.964844 C 236.992188 272.476562 237.367188 274.007812 237.667969 275.554688 C 237.96875 277.105469 238.191406 278.664062 238.34375 280.234375 C 238.492188 281.804688 238.566406 283.378906 238.5625 284.957031 L 238.5625 309.300781 C 238.578125 309.566406 238.566406 309.832031 238.527344 310.09375 C 238.492188 310.359375 238.425781 310.613281 238.335938 310.863281 C 238.242188 311.117188 238.128906 311.355469 237.988281 311.582031 C 237.847656 311.808594 237.6875 312.015625 237.503906 312.210938 C 237.324219 312.40625 237.121094 312.578125 236.902344 312.730469 C 236.6875 312.882812 236.453125 313.011719 236.210938 313.117188 C 235.964844 313.222656 235.710938 313.300781 235.453125 313.355469 C 235.191406 313.410156 234.925781 313.4375 234.660156 313.433594 Z M 135.019531 305.476562 L 230.757812 305.476562 L 230.757812 285.1875 C 230.765625 283.332031 230.644531 281.484375 230.398438 279.644531 C 230.15625 277.804688 229.789062 275.992188 229.296875 274.199219 C 228.804688 272.410156 228.199219 270.664062 227.46875 268.953125 C 226.742188 267.246094 225.902344 265.597656 224.953125 264.003906 C 224 262.410156 222.949219 260.886719 221.789062 259.433594 C 220.632812 257.984375 219.382812 256.617188 218.042969 255.335938 C 216.699219 254.054688 215.277344 252.867188 213.773438 251.777344 C 212.273438 250.6875 210.703125 249.707031 209.066406 248.828125 C 206.265625 247.335938 203.328125 246.183594 200.257812 245.382812 C 197.183594 244.578125 194.0625 244.140625 190.886719 244.070312 L 176.0625 244.070312 C 174.714844 244.070312 173.375 244.132812 172.035156 244.265625 C 170.695312 244.398438 169.363281 244.597656 168.046875 244.859375 C 166.726562 245.121094 165.421875 245.449219 164.132812 245.839844 C 162.847656 246.230469 161.582031 246.683594 160.335938 247.199219 C 159.09375 247.714844 157.878906 248.292969 156.691406 248.925781 C 155.507812 249.5625 154.355469 250.253906 153.234375 251 C 152.117188 251.75 151.039062 252.550781 149.996094 253.40625 C 148.957031 254.261719 147.964844 255.164062 147.011719 256.117188 C 146.0625 257.070312 145.160156 258.066406 144.308594 259.109375 C 143.453125 260.148438 142.65625 261.230469 141.910156 262.351562 C 141.164062 263.46875 140.472656 264.625 139.839844 265.8125 C 139.207031 267 138.632812 268.214844 138.121094 269.457031 C 137.605469 270.703125 137.15625 271.96875 136.769531 273.257812 C 136.378906 274.546875 136.054688 275.851562 135.792969 277.171875 C 135.535156 278.492188 135.339844 279.820312 135.210938 281.160156 C 135.078125 282.5 135.015625 283.84375 135.019531 285.1875 Z M 182.929688 223.46875 C 181.871094 223.46875 180.816406 223.417969 179.761719 223.3125 C 178.707031 223.210938 177.664062 223.054688 176.625 222.847656 C 175.589844 222.640625 174.5625 222.386719 173.550781 222.078125 C 172.539062 221.769531 171.542969 221.414062 170.566406 221.011719 C 169.589844 220.605469 168.632812 220.152344 167.699219 219.65625 C 166.765625 219.15625 165.859375 218.613281 164.980469 218.023438 C 164.101562 217.4375 163.253906 216.808594 162.433594 216.136719 C 161.617188 215.464844 160.835938 214.753906 160.085938 214.007812 C 159.335938 213.257812 158.628906 212.476562 157.957031 211.660156 C 157.285156 210.839844 156.65625 209.992188 156.070312 209.113281 C 155.480469 208.234375 154.9375 207.328125 154.4375 206.394531 C 153.941406 205.460938 153.488281 204.503906 153.082031 203.527344 C 152.679688 202.550781 152.324219 201.554688 152.015625 200.542969 C 151.707031 199.53125 151.453125 198.503906 151.246094 197.46875 C 151.039062 196.429688 150.882812 195.386719 150.78125 194.332031 C 150.675781 193.277344 150.625 192.222656 150.625 191.164062 C 150.625 190.109375 150.675781 189.050781 150.78125 188 C 150.882812 186.945312 151.039062 185.902344 151.246094 184.863281 C 151.453125 183.824219 151.707031 182.800781 152.015625 181.789062 C 152.324219 180.777344 152.679688 179.78125 153.082031 178.804688 C 153.488281 177.824219 153.941406 176.871094 154.4375 175.9375 C 154.9375 175.003906 155.480469 174.097656 156.070312 173.21875 C 156.65625 172.339844 157.285156 171.492188 157.957031 170.671875 C 158.628906 169.855469 159.335938 169.070312 160.085938 168.324219 C 160.835938 167.574219 161.617188 166.867188 162.433594 166.195312 C 163.253906 165.523438 164.101562 164.894531 164.980469 164.304688 C 165.859375 163.71875 166.765625 163.175781 167.699219 162.675781 C 168.632812 162.175781 169.589844 161.726562 170.566406 161.320312 C 171.542969 160.917969 172.539062 160.558594 173.550781 160.253906 C 174.5625 159.945312 175.589844 159.6875 176.625 159.484375 C 177.664062 159.277344 178.707031 159.121094 179.761719 159.019531 C 180.816406 158.914062 181.871094 158.863281 182.929688 158.863281 C 183.984375 158.863281 185.042969 158.914062 186.09375 159.019531 C 187.148438 159.121094 188.191406 159.277344 189.230469 159.484375 C 190.269531 159.6875 191.292969 159.945312 192.304688 160.253906 C 193.316406 160.558594 194.3125 160.917969 195.289062 161.320312 C 196.265625 161.726562 197.222656 162.175781 198.15625 162.675781 C 199.089844 163.175781 199.996094 163.71875 200.875 164.304688 C 201.753906 164.894531 202.601562 165.523438 203.421875 166.195312 C 204.238281 166.867188 205.023438 167.574219 205.769531 168.324219 C 206.519531 169.070312 207.226562 169.855469 207.898438 170.671875 C 208.570312 171.492188 209.199219 172.339844 209.789062 173.21875 C 210.375 174.097656 210.917969 175.003906 211.417969 175.9375 C 211.914062 176.871094 212.367188 177.824219 212.773438 178.804688 C 213.175781 179.78125 213.535156 180.777344 213.839844 181.789062 C 214.148438 182.800781 214.40625 183.824219 214.609375 184.863281 C 214.816406 185.902344 214.972656 186.945312 215.074219 188 C 215.179688 189.050781 215.230469 190.109375 215.230469 191.164062 C 215.230469 192.222656 215.179688 193.277344 215.074219 194.332031 C 214.972656 195.386719 214.816406 196.429688 214.609375 197.46875 C 214.40625 198.503906 214.148438 199.53125 213.839844 200.542969 C 213.535156 201.554688 213.175781 202.550781 212.773438 203.527344 C 212.367188 204.503906 211.914062 205.460938 211.417969 206.394531 C 210.917969 207.328125 210.375 208.234375 209.789062 209.113281 C 209.199219 209.992188 208.570312 210.839844 207.898438 211.660156 C 207.226562 212.476562 206.519531 213.257812 205.769531 214.007812 C 205.023438 214.753906 204.238281 215.464844 203.421875 216.136719 C 202.601562 216.808594 201.753906 217.4375 200.875 218.023438 C 199.996094 218.613281 199.089844 219.15625 198.15625 219.65625 C 197.222656 220.152344 196.265625 220.605469 195.289062 221.011719 C 194.3125 221.414062 193.316406 221.769531 192.304688 222.078125 C 191.292969 222.386719 190.269531 222.640625 189.230469 222.847656 C 188.191406 223.054688 187.148438 223.210938 186.09375 223.3125 C 185.042969 223.417969 183.984375 223.46875 182.929688 223.46875 Z M 182.929688 166.664062 C 182.125 166.664062 181.324219 166.703125 180.527344 166.78125 C 179.726562 166.863281 178.933594 166.980469 178.148438 167.136719 C 177.359375 167.292969 176.582031 167.488281 175.816406 167.71875 C 175.046875 167.953125 174.292969 168.222656 173.550781 168.53125 C 172.8125 168.835938 172.085938 169.179688 171.378906 169.558594 C 170.671875 169.9375 169.984375 170.347656 169.316406 170.792969 C 168.648438 171.238281 168.003906 171.71875 167.386719 172.226562 C 166.765625 172.734375 166.171875 173.273438 165.601562 173.839844 C 165.035156 174.410156 164.496094 175.003906 163.988281 175.621094 C 163.480469 176.242188 163.003906 176.886719 162.554688 177.554688 C 162.109375 178.222656 161.699219 178.910156 161.320312 179.617188 C 160.941406 180.324219 160.597656 181.046875 160.292969 181.789062 C 159.984375 182.53125 159.714844 183.285156 159.480469 184.054688 C 159.25 184.820312 159.054688 185.597656 158.898438 186.386719 C 158.742188 187.171875 158.625 187.964844 158.546875 188.765625 C 158.464844 189.5625 158.425781 190.363281 158.425781 191.164062 C 158.425781 191.96875 158.464844 192.769531 158.546875 193.566406 C 158.625 194.367188 158.742188 195.160156 158.898438 195.945312 C 159.054688 196.734375 159.25 197.511719 159.480469 198.277344 C 159.714844 199.046875 159.984375 199.800781 160.292969 200.542969 C 160.597656 201.28125 160.941406 202.007812 161.320312 202.714844 C 161.699219 203.421875 162.109375 204.109375 162.554688 204.777344 C 163.003906 205.445312 163.480469 206.089844 163.988281 206.707031 C 164.496094 207.328125 165.035156 207.921875 165.601562 208.492188 C 166.171875 209.058594 166.765625 209.597656 167.386719 210.105469 C 168.003906 210.613281 168.648438 211.089844 169.316406 211.539062 C 169.984375 211.984375 170.671875 212.394531 171.378906 212.773438 C 172.085938 213.152344 172.8125 213.496094 173.550781 213.800781 C 174.292969 214.109375 175.046875 214.378906 175.816406 214.613281 C 176.582031 214.84375 177.359375 215.039062 178.148438 215.195312 C 178.933594 215.351562 179.726562 215.46875 180.527344 215.546875 C 181.324219 215.628906 182.125 215.667969 182.929688 215.667969 C 183.730469 215.667969 184.53125 215.628906 185.328125 215.546875 C 186.128906 215.46875 186.921875 215.351562 187.707031 215.195312 C 188.496094 215.039062 189.273438 214.84375 190.039062 214.613281 C 190.808594 214.378906 191.5625 214.109375 192.304688 213.800781 C 193.046875 213.496094 193.769531 213.152344 194.476562 212.773438 C 195.183594 212.394531 195.871094 211.984375 196.539062 211.539062 C 197.207031 211.089844 197.851562 210.613281 198.472656 210.105469 C 199.089844 209.597656 199.683594 209.058594 200.253906 208.492188 C 200.820312 207.921875 201.359375 207.328125 201.867188 206.707031 C 202.375 206.089844 202.855469 205.445312 203.300781 204.777344 C 203.746094 204.109375 204.15625 203.421875 204.535156 202.714844 C 204.914062 202.007812 205.257812 201.28125 205.5625 200.542969 C 205.871094 199.800781 206.140625 199.046875 206.375 198.277344 C 206.605469 197.511719 206.800781 196.734375 206.957031 195.945312 C 207.113281 195.160156 207.230469 194.367188 207.3125 193.566406 C 207.390625 192.769531 207.429688 191.96875 207.429688 191.164062 C 207.4375 190.355469 207.40625 189.550781 207.332031 188.746094 C 207.261719 187.941406 207.148438 187.140625 207 186.347656 C 206.847656 185.554688 206.660156 184.769531 206.429688 183.992188 C 206.203125 183.21875 205.9375 182.453125 205.632812 181.707031 C 205.328125 180.957031 204.988281 180.222656 204.613281 179.507812 C 204.238281 178.792969 203.828125 178.097656 203.382812 177.421875 C 202.941406 176.746094 202.464844 176.09375 201.957031 175.46875 C 201.445312 174.839844 200.910156 174.238281 200.339844 173.660156 C 199.773438 173.085938 199.179688 172.539062 198.554688 172.023438 C 197.933594 171.507812 197.289062 171.023438 196.617188 170.570312 C 195.949219 170.117188 195.257812 169.699219 194.546875 169.316406 C 193.835938 168.929688 193.109375 168.582031 192.363281 168.269531 C 191.617188 167.957031 190.859375 167.679688 190.085938 167.441406 C 189.316406 167.203125 188.53125 167.003906 187.742188 166.84375 C 186.949219 166.683594 186.152344 166.5625 185.347656 166.480469 C 184.542969 166.398438 183.734375 166.355469 182.929688 166.351562 Z M 210.785156 156.363281 L 209.378906 156.363281 C 208.683594 156.078125 208.113281 155.636719 207.664062 155.035156 C 207.21875 154.433594 206.957031 153.757812 206.882812 153.011719 L 204.933594 128.507812 C 203.578125 127.753906 202.277344 126.910156 201.035156 125.980469 C 199.792969 125.050781 198.617188 124.042969 197.507812 122.957031 C 196.402344 121.871094 195.367188 120.71875 194.414062 119.496094 C 193.457031 118.273438 192.589844 116.992188 191.800781 115.652344 C 191.015625 114.316406 190.324219 112.929688 189.722656 111.5 C 189.121094 110.070312 188.617188 108.605469 188.210938 107.109375 C 187.804688 105.613281 187.5 104.09375 187.292969 102.554688 C 187.085938 101.019531 186.984375 99.472656 186.984375 97.921875 L 186.984375 94.722656 C 186.988281 93.574219 187.046875 92.425781 187.160156 91.285156 C 187.277344 90.140625 187.445312 89.003906 187.671875 87.878906 C 187.898438 86.75 188.179688 85.636719 188.515625 84.539062 C 188.851562 83.441406 189.238281 82.359375 189.679688 81.296875 C 190.121094 80.238281 190.613281 79.199219 191.15625 78.1875 C 191.695312 77.171875 192.289062 76.1875 192.925781 75.234375 C 193.566406 74.277344 194.25 73.355469 194.980469 72.46875 C 195.707031 71.582031 196.480469 70.730469 197.292969 69.917969 C 198.105469 69.105469 198.957031 68.332031 199.84375 67.605469 C 200.730469 66.875 201.652344 66.191406 202.609375 65.550781 C 203.5625 64.914062 204.546875 64.320312 205.5625 63.78125 C 206.574219 63.238281 207.613281 62.746094 208.671875 62.304688 C 209.734375 61.863281 210.816406 61.476562 211.914062 61.140625 C 213.011719 60.804688 214.125 60.523438 215.253906 60.296875 C 216.378906 60.070312 217.515625 59.902344 218.660156 59.785156 C 219.800781 59.671875 220.949219 59.613281 222.097656 59.609375 L 276.71875 59.609375 C 277.867188 59.613281 279.011719 59.671875 280.15625 59.785156 C 281.300781 59.902344 282.433594 60.070312 283.5625 60.296875 C 284.6875 60.523438 285.800781 60.804688 286.902344 61.140625 C 288 61.476562 289.082031 61.863281 290.140625 62.304688 C 291.203125 62.746094 292.242188 63.238281 293.253906 63.78125 C 294.265625 64.320312 295.25 64.914062 296.207031 65.550781 C 297.160156 66.191406 298.082031 66.875 298.972656 67.605469 C 299.859375 68.332031 300.710938 69.105469 301.523438 69.917969 C 302.335938 70.730469 303.105469 71.582031 303.835938 72.46875 C 304.566406 73.355469 305.25 74.277344 305.890625 75.234375 C 306.527344 76.1875 307.117188 77.171875 307.660156 78.1875 C 308.203125 79.199219 308.695312 80.238281 309.136719 81.296875 C 309.578125 82.359375 309.964844 83.441406 310.300781 84.539062 C 310.636719 85.636719 310.917969 86.75 311.144531 87.878906 C 311.367188 89.003906 311.539062 90.140625 311.652344 91.285156 C 311.769531 92.425781 311.828125 93.574219 311.832031 94.722656 L 311.832031 97.375 C 311.828125 98.523438 311.769531 99.671875 311.652344 100.816406 C 311.539062 101.957031 311.367188 103.09375 311.144531 104.222656 C 310.917969 105.347656 310.636719 106.460938 310.300781 107.558594 C 309.964844 108.660156 309.578125 109.738281 309.136719 110.800781 C 308.695312 111.863281 308.203125 112.898438 307.660156 113.914062 C 307.117188 114.925781 306.527344 115.910156 305.890625 116.863281 C 305.25 117.820312 304.566406 118.742188 303.835938 119.628906 C 303.105469 120.519531 302.335938 121.367188 301.523438 122.179688 C 300.710938 122.996094 299.859375 123.765625 298.972656 124.496094 C 298.082031 125.222656 297.160156 125.90625 296.207031 126.546875 C 295.25 127.1875 294.265625 127.777344 293.253906 128.320312 C 292.242188 128.863281 291.203125 129.355469 290.140625 129.796875 C 289.082031 130.234375 288 130.625 286.902344 130.960938 C 285.800781 131.292969 284.6875 131.574219 283.5625 131.800781 C 282.433594 132.027344 281.300781 132.199219 280.15625 132.3125 C 279.011719 132.425781 277.867188 132.484375 276.71875 132.488281 L 236.378906 132.488281 L 213.515625 154.960938 C 212.753906 155.695312 211.84375 156.058594 210.785156 156.054688 Z M 222.097656 67.414062 C 221.203125 67.414062 220.3125 67.457031 219.421875 67.542969 C 218.53125 67.632812 217.648438 67.761719 216.769531 67.9375 C 215.894531 68.113281 215.027344 68.328125 214.171875 68.589844 C 213.316406 68.847656 212.472656 69.148438 211.648438 69.492188 C 210.820312 69.835938 210.011719 70.214844 209.222656 70.636719 C 208.433594 71.058594 207.667969 71.519531 206.925781 72.015625 C 206.183594 72.511719 205.464844 73.042969 204.773438 73.613281 C 204.082031 74.179688 203.417969 74.78125 202.785156 75.414062 C 202.15625 76.042969 201.554688 76.707031 200.988281 77.398438 C 200.417969 78.089844 199.886719 78.808594 199.390625 79.550781 C 198.894531 80.292969 198.433594 81.058594 198.011719 81.847656 C 197.589844 82.636719 197.210938 83.445312 196.867188 84.273438 C 196.523438 85.097656 196.222656 85.941406 195.964844 86.796875 C 195.703125 87.652344 195.488281 88.519531 195.3125 89.394531 C 195.136719 90.273438 195.007812 91.15625 194.917969 92.046875 C 194.832031 92.9375 194.789062 93.828125 194.789062 94.722656 L 194.789062 97.375 C 194.789062 98.660156 194.878906 99.933594 195.058594 101.203125 C 195.238281 102.472656 195.507812 103.722656 195.867188 104.957031 C 196.226562 106.1875 196.667969 107.386719 197.195312 108.554688 C 197.722656 109.726562 198.332031 110.851562 199.019531 111.933594 C 199.707031 113.015625 200.464844 114.046875 201.300781 115.019531 C 202.132812 115.996094 203.03125 116.90625 203.992188 117.753906 C 204.953125 118.601562 205.972656 119.378906 207.042969 120.082031 C 208.117188 120.785156 209.234375 121.410156 210.394531 121.953125 C 211.027344 122.253906 211.542969 122.6875 211.945312 123.257812 C 212.347656 123.828125 212.585938 124.460938 212.65625 125.152344 L 214.0625 143.492188 L 232.476562 125.777344 C 233.238281 125.042969 234.148438 124.679688 235.207031 124.6875 L 277.265625 124.6875 C 278.160156 124.6875 279.050781 124.640625 279.941406 124.554688 C 280.832031 124.464844 281.714844 124.335938 282.589844 124.160156 C 283.46875 123.988281 284.335938 123.769531 285.191406 123.511719 C 286.046875 123.25 286.886719 122.949219 287.714844 122.605469 C 288.542969 122.265625 289.347656 121.882812 290.136719 121.460938 C 290.925781 121.039062 291.691406 120.582031 292.4375 120.082031 C 293.179688 119.585938 293.898438 119.054688 294.589844 118.488281 C 295.28125 117.917969 295.941406 117.320312 296.574219 116.6875 C 297.207031 116.054688 297.808594 115.390625 298.375 114.699219 C 298.941406 114.007812 299.472656 113.292969 299.972656 112.546875 C 300.46875 111.804688 300.925781 111.039062 301.347656 110.25 C 301.769531 109.460938 302.152344 108.652344 302.496094 107.828125 C 302.835938 107 303.136719 106.160156 303.398438 105.304688 C 303.65625 104.449219 303.875 103.582031 304.046875 102.703125 C 304.222656 101.828125 304.355469 100.941406 304.441406 100.054688 C 304.53125 99.164062 304.574219 98.269531 304.574219 97.375 L 304.574219 94.722656 C 304.574219 93.820312 304.527344 92.921875 304.441406 92.023438 C 304.351562 91.125 304.21875 90.230469 304.039062 89.347656 C 303.863281 88.460938 303.640625 87.589844 303.378906 86.726562 C 303.113281 85.863281 302.804688 85.015625 302.457031 84.179688 C 302.109375 83.347656 301.722656 82.535156 301.292969 81.742188 C 300.863281 80.945312 300.394531 80.175781 299.890625 79.429688 C 299.386719 78.679688 298.84375 77.957031 298.265625 77.265625 C 297.691406 76.570312 297.078125 75.90625 296.4375 75.273438 C 295.792969 74.640625 295.121094 74.039062 294.417969 73.472656 C 293.71875 72.90625 292.988281 72.375 292.234375 71.878906 C 291.480469 71.382812 290.703125 70.929688 289.902344 70.511719 C 289.101562 70.09375 288.28125 69.714844 287.445312 69.378906 C 286.605469 69.042969 285.753906 68.75 284.886719 68.496094 C 284.019531 68.246094 283.144531 68.035156 282.257812 67.871094 C 281.371094 67.707031 280.476562 67.585938 279.578125 67.507812 C 278.675781 67.433594 277.777344 67.402344 276.875 67.414062 Z M 221.160156 110.25 C 220.261719 110.25 219.367188 110.164062 218.484375 109.988281 C 217.597656 109.8125 216.738281 109.550781 215.90625 109.207031 C 215.074219 108.859375 214.28125 108.4375 213.53125 107.9375 C 212.78125 107.433594 212.089844 106.867188 211.449219 106.226562 C 210.8125 105.589844 210.246094 104.898438 209.742188 104.148438 C 209.242188 103.398438 208.820312 102.605469 208.472656 101.773438 C 208.128906 100.941406 207.867188 100.082031 207.691406 99.195312 C 207.515625 98.3125 207.429688 97.417969 207.429688 96.519531 C 207.429688 95.617188 207.515625 94.722656 207.691406 93.839844 C 207.867188 92.953125 208.128906 92.09375 208.472656 91.261719 C 208.820312 90.429688 209.242188 89.636719 209.742188 88.886719 C 210.242188 88.136719 210.8125 87.445312 211.449219 86.808594 C 212.089844 86.167969 212.78125 85.601562 213.53125 85.097656 C 214.28125 84.597656 215.074219 84.175781 215.90625 83.832031 C 216.738281 83.484375 217.597656 83.222656 218.484375 83.046875 C 219.367188 82.871094 220.261719 82.785156 221.160156 82.785156 C 222.0625 82.785156 222.957031 82.871094 223.839844 83.046875 C 224.726562 83.222656 225.582031 83.484375 226.417969 83.832031 C 227.25 84.175781 228.042969 84.597656 228.792969 85.097656 C 229.542969 85.601562 230.234375 86.167969 230.871094 86.808594 C 231.511719 87.445312 232.078125 88.136719 232.582031 88.886719 C 233.082031 89.636719 233.503906 90.429688 233.847656 91.261719 C 234.195312 92.09375 234.453125 92.953125 234.628906 93.839844 C 234.804688 94.722656 234.894531 95.617188 234.894531 96.519531 C 234.894531 97.417969 234.804688 98.3125 234.628906 99.195312 C 234.453125 100.082031 234.195312 100.941406 233.847656 101.773438 C 233.503906 102.605469 233.082031 103.398438 232.582031 104.148438 C 232.078125 104.898438 231.511719 105.589844 230.871094 106.226562 C 230.234375 106.867188 229.542969 107.433594 228.792969 107.9375 C 228.042969 108.4375 227.25 108.859375 226.417969 109.207031 C 225.582031 109.550781 224.726562 109.8125 223.839844 109.988281 C 222.957031 110.164062 222.0625 110.25 221.160156 110.25 Z M 221.160156 90.585938 C 220.773438 90.585938 220.386719 90.625 220.003906 90.703125 C 219.621094 90.777344 219.253906 90.890625 218.890625 91.039062 C 218.53125 91.1875 218.191406 91.371094 217.867188 91.585938 C 217.542969 91.804688 217.242188 92.050781 216.96875 92.324219 C 216.691406 92.601562 216.449219 92.898438 216.230469 93.222656 C 216.015625 93.546875 215.832031 93.886719 215.683594 94.25 C 215.535156 94.609375 215.421875 94.980469 215.34375 95.359375 C 215.269531 95.742188 215.230469 96.128906 215.230469 96.519531 C 215.230469 96.90625 215.269531 97.292969 215.34375 97.675781 C 215.421875 98.054688 215.535156 98.425781 215.683594 98.785156 C 215.832031 99.148438 216.015625 99.488281 216.230469 99.8125 C 216.449219 100.136719 216.691406 100.4375 216.96875 100.710938 C 217.242188 100.984375 217.542969 101.230469 217.867188 101.449219 C 218.191406 101.664062 218.53125 101.847656 218.890625 101.996094 C 219.253906 102.144531 219.621094 102.257812 220.003906 102.332031 C 220.386719 102.410156 220.773438 102.449219 221.160156 102.449219 C 221.550781 102.449219 221.9375 102.410156 222.320312 102.332031 C 222.699219 102.257812 223.070312 102.144531 223.429688 101.996094 C 223.789062 101.847656 224.132812 101.664062 224.457031 101.449219 C 224.78125 101.230469 225.078125 100.984375 225.355469 100.710938 C 225.628906 100.4375 225.875 100.136719 226.09375 99.8125 C 226.308594 99.488281 226.492188 99.148438 226.640625 98.785156 C 226.789062 98.425781 226.902344 98.054688 226.976562 97.675781 C 227.054688 97.292969 227.09375 96.90625 227.09375 96.519531 C 227.078125 96.136719 227.027344 95.765625 226.9375 95.394531 C 226.851562 95.023438 226.730469 94.667969 226.574219 94.320312 C 226.417969 93.972656 226.230469 93.644531 226.011719 93.335938 C 225.792969 93.023438 225.546875 92.738281 225.273438 92.476562 C 225 92.210938 224.703125 91.976562 224.386719 91.769531 C 224.066406 91.566406 223.730469 91.390625 223.378906 91.25 C 223.027344 91.109375 222.664062 91 222.289062 90.929688 C 221.917969 90.855469 221.542969 90.820312 221.160156 90.820312 Z M 250.8125 110.25 C 249.910156 110.25 249.015625 110.164062 248.132812 109.988281 C 247.25 109.8125 246.390625 109.550781 245.558594 109.207031 C 244.722656 108.859375 243.933594 108.4375 243.183594 107.9375 C 242.433594 107.433594 241.738281 106.867188 241.101562 106.226562 C 240.464844 105.589844 239.894531 104.898438 239.394531 104.148438 C 238.894531 103.398438 238.46875 102.605469 238.125 101.773438 C 237.78125 100.941406 237.519531 100.082031 237.34375 99.195312 C 237.167969 98.3125 237.078125 97.417969 237.078125 96.519531 C 237.078125 95.617188 237.167969 94.722656 237.34375 93.839844 C 237.519531 92.953125 237.78125 92.09375 238.125 91.261719 C 238.46875 90.429688 238.894531 89.636719 239.394531 88.886719 C 239.894531 88.136719 240.464844 87.445312 241.101562 86.808594 C 241.738281 86.167969 242.433594 85.601562 243.183594 85.097656 C 243.933594 84.597656 244.722656 84.175781 245.558594 83.832031 C 246.390625 83.484375 247.25 83.222656 248.132812 83.046875 C 249.015625 82.871094 249.910156 82.785156 250.8125 82.785156 C 251.714844 82.785156 252.605469 82.871094 253.492188 83.046875 C 254.375 83.222656 255.234375 83.484375 256.066406 83.832031 C 256.902344 84.175781 257.691406 84.597656 258.441406 85.097656 C 259.191406 85.601562 259.886719 86.167969 260.523438 86.808594 C 261.160156 87.445312 261.730469 88.136719 262.230469 88.886719 C 262.730469 89.636719 263.15625 90.429688 263.5 91.261719 C 263.84375 92.09375 264.105469 92.953125 264.28125 93.839844 C 264.457031 94.722656 264.546875 95.617188 264.546875 96.519531 C 264.546875 97.417969 264.457031 98.3125 264.28125 99.195312 C 264.105469 100.082031 263.84375 100.941406 263.5 101.773438 C 263.15625 102.605469 262.730469 103.398438 262.230469 104.148438 C 261.730469 104.898438 261.160156 105.589844 260.523438 106.226562 C 259.886719 106.867188 259.191406 107.433594 258.441406 107.9375 C 257.691406 108.4375 256.902344 108.859375 256.066406 109.207031 C 255.234375 109.550781 254.375 109.8125 253.492188 109.988281 C 252.605469 110.164062 251.714844 110.25 250.8125 110.25 Z M 250.8125 90.585938 C 250.421875 90.585938 250.039062 90.625 249.65625 90.703125 C 249.273438 90.777344 248.902344 90.890625 248.542969 91.039062 C 248.183594 91.1875 247.839844 91.371094 247.519531 91.585938 C 247.195312 91.804688 246.894531 92.050781 246.617188 92.324219 C 246.34375 92.601562 246.097656 92.898438 245.882812 93.222656 C 245.664062 93.546875 245.484375 93.886719 245.332031 94.25 C 245.183594 94.609375 245.070312 94.980469 244.996094 95.359375 C 244.921875 95.742188 244.882812 96.128906 244.882812 96.519531 C 244.882812 96.90625 244.921875 97.292969 244.996094 97.675781 C 245.070312 98.054688 245.183594 98.425781 245.332031 98.785156 C 245.484375 99.148438 245.664062 99.488281 245.882812 99.8125 C 246.097656 100.136719 246.34375 100.4375 246.617188 100.710938 C 246.894531 100.984375 247.195312 101.230469 247.519531 101.449219 C 247.839844 101.664062 248.183594 101.847656 248.542969 101.996094 C 248.902344 102.144531 249.273438 102.257812 249.65625 102.332031 C 250.039062 102.410156 250.421875 102.449219 250.8125 102.449219 C 251.203125 102.449219 251.585938 102.410156 251.96875 102.332031 C 252.351562 102.257812 252.722656 102.144531 253.082031 101.996094 C 253.441406 101.847656 253.78125 101.664062 254.105469 101.449219 C 254.429688 101.230469 254.730469 100.984375 255.003906 100.710938 C 255.28125 100.4375 255.527344 100.136719 255.742188 99.8125 C 255.960938 99.488281 256.140625 99.148438 256.289062 98.785156 C 256.441406 98.425781 256.550781 98.054688 256.628906 97.675781 C 256.703125 97.292969 256.742188 96.90625 256.742188 96.519531 C 256.726562 96.136719 256.675781 95.765625 256.589844 95.394531 C 256.503906 95.023438 256.382812 94.667969 256.226562 94.320312 C 256.070312 93.972656 255.882812 93.644531 255.664062 93.335938 C 255.445312 93.023438 255.199219 92.738281 254.925781 92.476562 C 254.652344 92.210938 254.355469 91.976562 254.035156 91.769531 C 253.71875 91.566406 253.382812 91.390625 253.027344 91.25 C 252.675781 91.109375 252.3125 91 251.941406 90.929688 C 251.566406 90.855469 251.191406 90.820312 250.8125 90.820312 Z M 280.464844 110.25 C 279.5625 110.25 278.667969 110.164062 277.785156 109.988281 C 276.898438 109.8125 276.039062 109.550781 275.207031 109.207031 C 274.375 108.859375 273.582031 108.4375 272.832031 107.9375 C 272.082031 107.433594 271.390625 106.867188 270.753906 106.226562 C 270.113281 105.589844 269.546875 104.898438 269.042969 104.148438 C 268.542969 103.398438 268.121094 102.605469 267.773438 101.773438 C 267.429688 100.941406 267.167969 100.082031 266.992188 99.195312 C 266.816406 98.3125 266.730469 97.417969 266.730469 96.519531 C 266.730469 95.617188 266.816406 94.722656 266.992188 93.839844 C 267.167969 92.953125 267.429688 92.09375 267.773438 91.261719 C 268.121094 90.429688 268.542969 89.636719 269.042969 88.886719 C 269.546875 88.136719 270.113281 87.445312 270.753906 86.808594 C 271.390625 86.167969 272.082031 85.601562 272.832031 85.097656 C 273.582031 84.597656 274.375 84.175781 275.207031 83.832031 C 276.039062 83.484375 276.898438 83.222656 277.785156 83.046875 C 278.667969 82.871094 279.5625 82.785156 280.464844 82.785156 C 281.363281 82.785156 282.257812 82.871094 283.140625 83.046875 C 284.027344 83.222656 284.886719 83.484375 285.71875 83.832031 C 286.550781 84.175781 287.34375 84.597656 288.09375 85.097656 C 288.84375 85.601562 289.535156 86.167969 290.171875 86.808594 C 290.8125 87.445312 291.378906 88.136719 291.882812 88.886719 C 292.382812 89.636719 292.804688 90.429688 293.152344 91.261719 C 293.496094 92.09375 293.757812 92.953125 293.933594 93.839844 C 294.109375 94.722656 294.195312 95.617188 294.195312 96.519531 C 294.195312 97.417969 294.109375 98.3125 293.933594 99.195312 C 293.757812 100.082031 293.496094 100.941406 293.152344 101.773438 C 292.804688 102.605469 292.382812 103.398438 291.882812 104.148438 C 291.378906 104.898438 290.8125 105.589844 290.171875 106.226562 C 289.535156 106.867188 288.84375 107.433594 288.09375 107.9375 C 287.34375 108.4375 286.550781 108.859375 285.71875 109.207031 C 284.886719 109.550781 284.027344 109.8125 283.140625 109.988281 C 282.257812 110.164062 281.363281 110.25 280.464844 110.25 Z M 280.464844 90.585938 C 280.074219 90.585938 279.6875 90.625 279.304688 90.703125 C 278.925781 90.777344 278.554688 90.890625 278.195312 91.039062 C 277.832031 91.1875 277.492188 91.371094 277.167969 91.585938 C 276.84375 91.804688 276.546875 92.050781 276.269531 92.324219 C 275.996094 92.601562 275.75 92.898438 275.53125 93.222656 C 275.316406 93.546875 275.132812 93.886719 274.984375 94.25 C 274.835938 94.609375 274.722656 94.980469 274.648438 95.359375 C 274.570312 95.742188 274.53125 96.128906 274.53125 96.519531 C 274.53125 96.90625 274.570312 97.292969 274.648438 97.675781 C 274.722656 98.054688 274.835938 98.425781 274.984375 98.785156 C 275.132812 99.148438 275.316406 99.488281 275.53125 99.8125 C 275.75 100.136719 275.996094 100.4375 276.269531 100.710938 C 276.546875 100.984375 276.84375 101.230469 277.167969 101.449219 C 277.492188 101.664062 277.832031 101.847656 278.195312 101.996094 C 278.554688 102.144531 278.925781 102.257812 279.304688 102.332031 C 279.6875 102.410156 280.074219 102.449219 280.464844 102.449219 C 280.851562 102.449219 281.238281 102.410156 281.621094 102.332031 C 282 102.257812 282.371094 102.144531 282.730469 101.996094 C 283.09375 101.847656 283.433594 101.664062 283.757812 101.449219 C 284.082031 101.230469 284.378906 100.984375 284.65625 100.710938 C 284.929688 100.4375 285.175781 100.136719 285.394531 99.8125 C 285.609375 99.488281 285.792969 99.148438 285.941406 98.785156 C 286.089844 98.425781 286.203125 98.054688 286.277344 97.675781 C 286.355469 97.292969 286.394531 96.90625 286.394531 96.519531 C 286.378906 96.136719 286.328125 95.765625 286.238281 95.394531 C 286.152344 95.023438 286.03125 94.667969 285.875 94.320312 C 285.71875 93.972656 285.535156 93.644531 285.316406 93.335938 C 285.09375 93.023438 284.847656 92.738281 284.574219 92.476562 C 284.300781 92.210938 284.003906 91.976562 283.6875 91.769531 C 283.367188 91.566406 283.03125 91.390625 282.679688 91.25 C 282.328125 91.109375 281.964844 91 281.589844 90.929688 C 281.21875 90.855469 280.84375 90.820312 280.464844 90.820312 Z M 280.464844 90.585938 " fill-opacity="1" fill-rule="nonzero"/></g></svg>